<?xml version="1.0" encoding="UTF-8" standalone="no"?>
<svg
   xmlns:dc="http://purl.org/dc/elements/1.1/"
   xmlns:cc="http://creativecommons.org/ns#"
   xmlns:rdf="http://www.w3.org/1999/02/22-rdf-syntax-ns#"
   xmlns:svg="http://www.w3.org/2000/svg"
   xmlns="http://www.w3.org/2000/svg"
   xmlns:sodipodi="http://sodipodi.sourceforge.net/DTD/sodipodi-0.dtd"
   xmlns:inkscape="http://www.inkscape.org/namespaces/inkscape"
   id="svg5133"
   version="1.1"
   viewBox="0 0 26.62359 29.573372"
   height="29.573372mm"
   width="26.62359mm"
   sodipodi:docname="BBBB.svg"
   inkscape:version="0.92.3 (2405546, 2018-03-11)">
  <sodipodi:namedview
     pagecolor="#ffffff"
     bordercolor="#666666"
     borderopacity="1"
     objecttolerance="10"
     gridtolerance="10"
     guidetolerance="10"
     inkscape:pageopacity="0"
     inkscape:pageshadow="2"
     inkscape:window-width="1366"
     inkscape:window-height="708"
     id="namedview69"
     showgrid="false"
     fit-margin-top="0"
     fit-margin-left="0"
     fit-margin-right="0"
     fit-margin-bottom="0"
     inkscape:zoom="1.6939905"
     inkscape:cx="182.21455"
     inkscape:cy="44.094466"
     inkscape:window-x="0"
     inkscape:window-y="0"
     inkscape:window-maximized="1"
     inkscape:current-layer="svg5133" />
  <defs
     id="defs5127" />
  <metadata
     id="metadata5130">
    <rdf:RDF>
      <cc:Work
         rdf:about="">
        <dc:format>image/svg+xml</dc:format>
        <dc:type
           rdf:resource="http://purl.org/dc/dcmitype/StillImage" />
        <dc:title></dc:title>
      </cc:Work>
    </rdf:RDF>
  </metadata>
  <g
     transform="matrix(0.56731244,0,0,0.56731244,-27.988314,-10.377668)"
     id="layer1">
    <g
       id="g7602">
      <g
         id="g870"
         transform="matrix(0.35277777,0,0,-0.35277777,73.348186,20.545806)">
        <path
           d="m 0,0 0.056,-1.661 c 0,-0.31 -0.14,-0.515 -0.451,-0.588 l -1.354,-0.324 c -0.14,-0.036 -0.282,-0.072 -0.395,-0.078 -0.93,-0.048 -1.861,-0.013 -2.792,0.108 -0.31,0.04 -0.451,0.202 -0.479,0.511 -0.084,0.559 -0.113,1.122 -0.197,1.681 -0.085,0.898 0.084,1.753 0.282,2.638 0.084,0.456 0.141,0.91 0.366,1.345 0.452,0.954 1.1,1.552 2.2,1.723 0.564,0.114 1.128,0.144 1.692,0.088 l 0.31,-0.068 C -0.564,5.301 -0.451,5.138 -0.451,4.912 -0.423,4.547 -0.395,4.21 -0.395,3.843 -0.395,3.448 -0.592,3.24 -0.959,3.193 -1.438,3.112 -1.833,2.894 -2.172,2.509 -2.369,2.273 -2.454,2.043 -2.425,1.791 c 0,-0.31 0.169,-0.443 0.479,-0.37 l 1.269,0.236 C -0.592,1.661 -0.62,1.688 -0.536,1.692 -0.169,1.711 0,1.551 0.028,1.186 V 0.001 Z m -9.927,-2.861 -1.918,-0.101 c -0.198,-0.01 -0.395,0.008 -0.593,0.026 -0.281,0.013 -0.451,0.145 -0.507,0.396 l -0.085,0.616 -0.254,1.792 c -0.028,0.337 -0.028,0.703 -0.113,1.038 -0.112,1.037 0.113,2.036 0.536,2.989 0.198,0.546 0.565,1.045 1.044,1.493 0.31,0.326 0.677,0.458 1.044,0.619 0.197,0.094 0.31,0.072 0.507,0.167 0.592,0.257 1.185,0.231 1.777,0.178 0.339,-0.039 0.507,-0.227 0.507,-0.594 -0.028,-0.312 0.029,-0.563 0.057,-0.871 0,-0.198 0.028,-0.309 0.028,-0.506 0,-0.226 -0.113,-0.373 -0.338,-0.469 L -8.517,3.84 C -9.279,3.603 -9.758,3.155 -10.125,2.487 -10.21,2.285 -10.238,2.086 -10.21,1.89 c 0,-0.169 0.085,-0.249 0.283,-0.239 0.253,0.014 0.479,0.053 0.733,0.095 0.366,0.047 0.733,0.095 1.1,0.114 0.423,0.05 0.535,-0.169 0.564,-0.478 0.028,-0.591 0.056,-1.21 0.141,-1.798 0.028,-0.647 0.085,-1.236 0,-1.833 -0.028,-0.311 -0.198,-0.489 -0.508,-0.534 L -9.251,-2.854 -9.927,-2.89 Z"
           style="fill:#ef4136;fill-opacity:1;fill-rule:nonzero;stroke:none"
           id="path872"
           inkscape:connector-curvature="0" />
      </g>
      <g
         id="g874"
         transform="matrix(0.35277777,0,0,-0.35277777,52.119643,29.895403)">
        <path
           d="m 0,0 c -0.23,-0.012 -0.329,0.015 -0.559,-0.029 -0.231,-0.045 -0.362,-0.184 -0.395,-0.449 0,-0.099 0.033,-0.163 0.033,-0.261 l 0.263,-2.29 c 0.033,-0.36 0.131,-0.454 0.493,-0.533 0.691,-0.096 1.35,0.07 2.041,0.238 0.592,0.163 0.954,0.544 1.053,1.141 0.032,0.232 0.065,0.398 0.065,0.53 C 2.895,-0.901 2.566,-0.129 1.546,-0.051 1.053,0.022 0.526,0.028 0,0.033 Z M -1.185,5.63 -1.218,5.629 -1.152,4.118 c 0.033,-0.393 0.198,-0.45 0.593,-0.528 0.625,0 1.151,0.192 1.776,0.455 0.494,0.256 0.79,0.601 0.922,1.068 C 2.435,6.05 2.172,6.793 1.546,7.452 1.02,8.049 0.296,8.241 -0.461,8.432 -1.086,8.564 -1.283,8.389 -1.283,7.731 Z m -2.829,7.288 c 0.888,0.08 1.743,0.059 2.599,-0.061 0.79,-0.09 1.579,-0.082 2.336,-0.207 C 1.81,12.467 2.665,12.314 3.422,11.794 4.244,11.212 5.067,10.63 5.626,9.738 5.923,9.26 6.054,8.741 6.153,8.186 6.515,6.1 5.956,4.293 4.541,2.673 4.179,2.226 4.212,2.129 4.705,1.892 5.33,1.628 5.89,1.394 6.383,0.927 6.91,0.526 7.239,0.05 7.403,-0.501 L 7.699,-1.472 C 7.831,-2.123 7.732,-2.819 7.403,-3.528 7.041,-4.304 6.515,-4.923 5.89,-5.515 5.1,-6.314 4.179,-6.757 3.159,-7.172 2.929,-7.283 2.698,-7.295 2.468,-7.34 L 0.559,-7.703 c -1.02,-0.152 -1.941,-0.267 -2.961,-0.287 -0.888,-0.014 -1.678,-0.022 -2.567,0.03 -0.361,0.014 -0.691,0.128 -1.052,0.241 -0.264,0.085 -0.396,0.242 -0.396,0.539 0,0.691 0.034,1.383 0.066,2.076 l 0.099,1.914 0.099,1.979 c 0.033,0.627 0,1.119 0.099,1.749 0.098,1.42 0.131,2.837 0.131,4.285 -0.033,1.149 -0.033,2.301 -0.033,3.453 -0.032,1.183 -0.032,2.367 0.066,3.524 l 0.066,0.596 c 0.033,0.264 0.197,0.405 0.494,0.453 z"
           style="fill:#0083ff;fill-opacity:1;fill-rule:nonzero;stroke:none"
           id="path876"
           inkscape:connector-curvature="0" />
      </g>
      <g
         id="g878"
         transform="matrix(0.35277777,0,0,-0.35277777,55.521373,31.609268)">
        <path
           d="m 0,0 0.099,4.019 c 0,0.757 0.033,1.384 0.131,2.146 0,0.23 -0.033,0.459 0,0.691 0,0.823 0.033,1.614 0.066,2.438 0,0.494 0.066,0.925 0.099,1.421 l 0.066,1.451 c 0.033,0.758 0.033,1.449 0.131,2.211 0.033,0.627 0,1.218 0.099,1.848 l 0.099,1.749 0.065,0.267 c 0.099,0.433 0.33,0.642 0.724,0.663 0.625,0.131 1.284,0.133 1.942,0.167 0.362,0.019 0.757,0.007 1.152,-0.038 L 5.1,19.056 c 0.494,-0.008 0.921,-0.018 1.415,0.008 0.428,0.022 0.822,0.109 1.25,0.098 0.625,0.033 1.25,0.033 1.876,0.066 0.263,-0.019 0.427,-0.175 0.461,-0.404 v -0.132 c 0,-1.151 0.032,-2.235 0.032,-3.387 0,-0.395 -0.197,-0.635 -0.559,-0.72 C 8.95,14.453 8.325,14.388 7.765,14.424 7.206,14.428 6.614,14.298 5.988,14.101 5.758,14.023 5.66,13.853 5.66,13.623 c 0,-0.296 0.032,-0.591 0.032,-0.887 l 0.099,-0.982 0.066,-0.227 c 0.066,-0.325 0.263,-0.446 0.559,-0.365 0.625,0.164 1.251,0.131 1.876,0.065 0.362,-0.014 0.691,0.036 1.053,-0.043 0.362,-0.047 0.526,-0.269 0.559,-0.629 0.099,-0.785 0.132,-1.573 0.164,-2.328 V 7.766 C 10.068,7.405 9.904,7.232 9.608,7.183 9.213,7.064 8.785,7.041 8.358,6.986 7.798,6.858 7.206,6.827 6.647,6.765 6.35,6.749 6.087,6.736 5.791,6.687 5.297,6.628 5.199,6.491 5.199,5.998 L 5.33,3.932 c 0,-0.165 0,-0.296 0.033,-0.36 C 5.396,3.244 5.561,3.088 5.857,3.104 6.416,3.1 7.009,3.098 7.568,3.128 L 9.081,3.141 C 9.509,3.164 9.74,2.945 9.772,2.486 V 2.454 L 9.838,-1.064 V -1.261 C 9.838,-1.689 9.641,-1.929 9.213,-1.952 8.292,-1.967 7.37,-2.048 6.449,-1.998 l -3.06,0.136 C 3.159,-1.841 2.929,-1.887 2.665,-1.9 L 0.658,-1.94 c -0.362,0.014 -0.559,0.201 -0.592,0.496 l -0.099,1.442 z"
           style="fill:#0083ff;fill-opacity:1;fill-rule:nonzero;stroke:none"
           id="path880"
           inkscape:connector-curvature="0" />
      </g>
      <g
         id="g882"
         transform="matrix(0.35277777,0,0,-0.35277777,61.998831,28.472297)">
        <path
           d="M 0,0 C 0,-0.362 0.165,-0.485 0.494,-0.369 1.053,-0.208 1.58,0.017 2.139,0.211 3.62,0.815 4.245,2.526 4.146,3.639 3.981,5.177 2.83,5.643 1.81,5.557 1.382,5.502 0.954,5.446 0.527,5.325 0.033,5.201 -0.066,5.064 -0.066,4.57 -0.033,3.486 0,2.369 0,1.283 Z M -0.296,-4.589 C -0.395,-5.516 -0.428,-6.439 -0.428,-7.36 -0.46,-8.151 -0.494,-8.91 -0.592,-9.672 l -0.263,-2.087 c 0,-0.098 -0.033,-0.264 -0.066,-0.431 -0.099,-0.268 -0.296,-0.41 -0.56,-0.424 l -1.381,0.026 c -0.823,-0.01 -1.613,0.048 -2.403,-0.027 -0.427,-0.022 -0.658,0.196 -0.625,0.626 0,1.349 0.033,2.699 0.066,4.116 0,0.625 0.033,1.153 0.033,1.779 l 0.132,2.112 v 0.922 c 0.033,0.627 0.066,1.254 0.066,1.879 0.032,0.955 0.098,1.88 0.197,2.807 l 0.362,3.934 c 0.099,0.894 0.131,1.685 0.23,2.579 l 0.132,1.092 c 0.033,0.134 0.066,0.267 0.132,0.369 0.098,0.236 0.296,0.345 0.526,0.357 0.066,-0.029 0.164,-0.024 0.296,-0.017 0.625,-0.066 1.184,0.062 1.81,0.193 1.414,0.239 2.731,0.439 4.146,0.415 0.625,0 1.25,-0.132 1.875,-0.231 0.099,0.005 0.198,-0.055 0.296,-0.05 C 5.429,10.123 6.318,9.709 7.108,8.993 7.93,8.214 8.72,7.433 9.114,6.302 9.345,5.787 9.378,5.197 9.509,4.677 9.575,4.319 9.608,3.958 9.608,3.63 9.608,3.268 9.575,2.871 9.476,2.504 9.41,1.842 9.246,1.209 8.983,0.602 8.621,-0.206 8.127,-0.857 7.502,-1.449 7.272,-1.692 7.009,-1.837 6.745,-2.081 L 6.482,-2.292 C 6.285,-2.5 6.285,-2.698 6.449,-2.887 6.943,-3.486 7.37,-4.121 7.864,-4.721 L 8.95,-6.177 c 0.625,-0.856 1.185,-1.649 1.678,-2.545 0.033,-0.064 0.099,-0.159 0.132,-0.289 0.098,-0.291 0.033,-0.492 -0.263,-0.573 -0.264,-0.113 -0.56,-0.095 -0.823,-0.142 -1.152,-0.159 -2.205,-0.214 -3.356,-0.505 -0.297,-0.081 -0.56,0.004 -0.79,0.255 -0.691,0.72 -1.382,1.441 -2.04,2.196 l -2.204,2.484 c -0.363,0.409 -0.725,0.785 -1.119,1.159 -0.099,0.094 -0.132,0.059 -0.231,0.152 -0.23,-0.242 -0.197,-0.372 -0.23,-0.604"
           style="fill:#0083ff;fill-opacity:1;fill-rule:nonzero;stroke:none"
           id="path884"
           inkscape:connector-curvature="0" />
      </g>
      <g
         id="g886"
         transform="matrix(0.35277777,0,0,-0.35277777,71.552758,29.503854)">
        <path
           d="m 0,0 c -0.033,-0.89 -0.033,-1.713 -0.132,-2.606 -0.032,-0.496 -0.131,-0.961 -0.394,-1.403 -0.165,-0.272 -0.329,-0.478 -0.56,-0.72 -0.395,-0.383 -0.79,-0.7 -1.283,-0.989 -0.494,-0.289 -0.921,-0.443 -1.448,-0.569 l -1.974,-0.498 c -0.691,-0.168 -1.349,-0.236 -2.04,-0.206 -0.625,0 -1.25,0.066 -1.876,0.264 -0.395,0.078 -0.756,0.19 -1.052,0.339 -0.626,0.33 -1.251,0.659 -1.777,1.157 -0.658,0.591 -1.119,1.324 -1.382,2.199 -0.362,1.132 -0.527,2.176 -0.691,3.319 -0.165,1.11 -0.132,2.264 0.066,3.426 0.23,1.46 0.625,2.862 1.283,4.213 0.625,1.349 1.48,2.479 2.566,3.425 l 0.889,0.77 c 0.691,0.596 1.447,0.932 2.336,1.209 0.526,0.126 1.053,0.219 1.579,0.214 0.395,-0.012 0.79,0.074 1.185,0.062 0.395,-0.012 0.757,-0.125 1.152,-0.137 0.427,-0.076 0.888,0.014 1.315,-0.063 0.132,0.007 0.297,-0.017 0.527,-0.038 0.296,-0.083 0.428,-0.241 0.395,-0.539 0,-0.361 -0.099,-0.728 -0.132,-1.092 C -1.546,11.172 -1.546,10.58 -1.645,10.015 -1.678,9.586 -1.744,9.122 -1.843,8.689 -1.941,8.322 -2.106,8.116 -2.534,8.094 -3.191,8.059 -3.85,8.025 -4.508,7.957 -4.903,7.904 -5.33,7.782 -5.725,7.729 -6.679,7.58 -7.535,7.206 -8.324,6.638 -9.41,5.89 -10.068,4.934 -10.332,3.703 c -0.263,-1.33 0,-2.566 0.625,-3.685 0.165,-0.287 0.362,-0.574 0.527,-0.795 0.625,-0.889 1.448,-1.306 2.501,-1.481 0.427,-0.044 0.888,0.046 1.349,0.301 0.296,0.18 0.46,0.419 0.493,0.782 0.033,0.496 0.066,0.892 0.066,1.386 0,0.098 0.033,0.067 0,0.164 -0.033,0.36 -0.033,0.657 -0.658,0.591 C -5.956,0.938 -6.482,0.878 -6.975,0.852 -7.206,0.84 -7.337,0.866 -7.502,0.89 -7.93,0.934 -8.094,1.155 -8.028,1.587 c 0.032,0.363 0.131,0.632 0.164,0.995 0.033,0.627 0.132,1.192 0.033,1.812 v 0.394 c -0.033,0.492 0.329,0.643 0.691,0.662 0.165,-0.024 0.296,-0.05 0.461,-0.042 0.559,-0.069 1.085,0.057 1.612,0.118 0.098,0.038 0.23,0.045 0.395,0.053 1.217,-0.068 2.468,0.064 3.685,-0.103 0.033,-0.031 0.099,-0.027 0.197,-0.022 0.494,0.026 0.56,-0.07 0.658,-0.558 L -0.033,3.684 C -0.033,2.927 0,2.139 0,1.382 Z"
           style="fill:#0083ff;fill-opacity:1;fill-rule:nonzero;stroke:none"
           id="path888"
           inkscape:connector-curvature="0" />
      </g>
      <g
         id="g890"
         transform="matrix(0.35277777,0,0,-0.35277777,72.29638,30.730111)">
        <path
           d="m 0,0 0.099,4.019 c 0,0.757 0.033,1.384 0.131,2.146 0,0.23 -0.033,0.459 0,0.691 0,0.823 0.033,1.614 0.066,2.438 0,0.494 0.066,0.925 0.099,1.421 l 0.066,1.451 c 0.033,0.758 0.033,1.449 0.131,2.211 0.033,0.627 0,1.218 0.099,1.848 l 0.099,1.749 0.065,0.267 c 0.099,0.433 0.33,0.642 0.724,0.663 0.625,0.131 1.284,0.133 1.942,0.167 0.362,0.019 0.757,0.007 1.152,-0.038 L 5.1,19.056 c 0.494,-0.008 0.921,-0.018 1.415,0.008 0.428,0.022 0.822,0.109 1.25,0.098 0.625,0.033 1.251,0.033 1.876,0.066 0.263,-0.019 0.427,-0.175 0.461,-0.404 v -0.132 c 0,-1.151 0.032,-2.235 0.032,-3.387 0,-0.395 -0.197,-0.635 -0.559,-0.72 C 8.95,14.453 8.325,14.388 7.765,14.424 7.206,14.428 6.614,14.298 5.988,14.101 5.758,14.023 5.66,13.853 5.66,13.623 c 0,-0.296 0.032,-0.591 0.032,-0.887 l 0.099,-0.982 0.066,-0.227 c 0.066,-0.325 0.263,-0.446 0.559,-0.365 0.625,0.164 1.251,0.131 1.876,0.065 0.362,-0.014 0.691,0.036 1.053,-0.043 0.362,-0.047 0.526,-0.269 0.559,-0.629 0.099,-0.785 0.132,-1.573 0.164,-2.328 V 7.766 C 10.068,7.405 9.904,7.232 9.608,7.183 9.213,7.064 8.785,7.041 8.358,6.986 7.798,6.858 7.206,6.827 6.647,6.765 6.35,6.749 6.087,6.736 5.791,6.687 5.297,6.628 5.199,6.491 5.199,5.998 L 5.33,3.932 c 0,-0.165 0,-0.296 0.033,-0.36 C 5.396,3.244 5.561,3.088 5.857,3.104 6.416,3.1 7.009,3.098 7.568,3.128 L 9.081,3.141 C 9.509,3.164 9.74,2.945 9.772,2.486 V 2.454 L 9.838,-1.064 V -1.261 C 9.838,-1.689 9.641,-1.929 9.213,-1.952 8.292,-1.967 7.37,-2.048 6.449,-1.998 l -3.06,0.136 C 3.159,-1.841 2.929,-1.887 2.665,-1.9 L 0.658,-1.94 c -0.362,0.014 -0.559,0.201 -0.592,0.496 l -0.099,1.442 z"
           style="fill:#0083ff;fill-opacity:1;fill-rule:nonzero;stroke:none"
           id="path892"
           inkscape:connector-curvature="0" />
      </g>
      <g
         id="g894"
         transform="matrix(0.35277777,0,0,-0.35277777,78.773979,27.593177)">
        <path
           d="M 0,0 C 0,-0.362 0.165,-0.485 0.494,-0.369 1.053,-0.208 1.58,0.017 2.139,0.211 3.62,0.815 4.245,2.526 4.146,3.639 3.981,5.177 2.83,5.643 1.81,5.557 1.382,5.502 0.954,5.446 0.527,5.325 0.033,5.201 -0.066,5.064 -0.066,4.57 -0.033,3.486 0,2.369 0,1.283 Z M -0.296,-4.589 C -0.395,-5.516 -0.428,-6.439 -0.428,-7.36 -0.46,-8.151 -0.494,-8.91 -0.592,-9.672 l -0.263,-2.087 c 0,-0.098 -0.033,-0.264 -0.066,-0.431 -0.099,-0.268 -0.296,-0.41 -0.56,-0.424 l -1.381,0.026 c -0.823,-0.01 -1.613,0.048 -2.403,-0.027 -0.427,-0.022 -0.658,0.196 -0.625,0.626 0,1.349 0.033,2.699 0.066,4.116 0,0.625 0.033,1.153 0.033,1.779 l 0.132,2.112 v 0.922 c 0.032,0.627 0.066,1.254 0.066,1.879 0.032,0.955 0.098,1.88 0.197,2.807 l 0.362,3.934 c 0.099,0.894 0.131,1.685 0.23,2.579 l 0.132,1.092 c 0.033,0.134 0.066,0.267 0.132,0.369 0.098,0.236 0.296,0.345 0.526,0.357 0.066,-0.029 0.164,-0.024 0.296,-0.017 0.625,-0.066 1.184,0.062 1.81,0.193 1.414,0.239 2.731,0.439 4.146,0.415 0.625,0 1.25,-0.132 1.875,-0.231 0.099,0.005 0.198,-0.055 0.296,-0.05 C 5.429,10.123 6.318,9.709 7.108,8.993 7.93,8.214 8.72,7.433 9.114,6.302 9.345,5.787 9.378,5.197 9.509,4.677 9.575,4.319 9.608,3.958 9.608,3.63 9.608,3.268 9.575,2.871 9.476,2.504 9.41,1.842 9.246,1.209 8.983,0.602 8.621,-0.206 8.127,-0.857 7.502,-1.449 7.272,-1.692 7.009,-1.837 6.745,-2.081 L 6.482,-2.292 C 6.285,-2.5 6.285,-2.698 6.449,-2.887 6.943,-3.486 7.37,-4.121 7.864,-4.721 L 8.95,-6.177 c 0.625,-0.856 1.185,-1.649 1.678,-2.545 0.033,-0.064 0.099,-0.159 0.132,-0.289 0.098,-0.291 0.033,-0.492 -0.263,-0.573 -0.264,-0.113 -0.56,-0.095 -0.823,-0.142 -1.152,-0.159 -2.205,-0.214 -3.356,-0.505 -0.297,-0.081 -0.56,0.004 -0.79,0.255 -0.691,0.72 -1.382,1.441 -2.04,2.196 l -2.204,2.484 c -0.363,0.409 -0.725,0.785 -1.119,1.159 -0.099,0.094 -0.132,0.059 -0.231,0.152 -0.23,-0.242 -0.197,-0.372 -0.23,-0.604"
           style="fill:#0083ff;fill-opacity:1;fill-rule:nonzero;stroke:none"
           id="path896"
           inkscape:connector-curvature="0" />
      </g>
      <g
         id="g898"
         transform="matrix(0.35277777,0,0,-0.35277777,86.389322,26.602047)">
        <path
           d="m 0,0 v 0.033 c 0,0.362 -0.033,0.722 -0.066,1.082 l -0.263,2.816 -0.099,0.785 c -0.066,0.227 -0.197,0.351 -0.395,0.374 -0.164,-0.009 -0.296,0.017 -0.46,0.009 -0.625,0 -0.691,-0.069 -0.79,-0.7 L -2.599,1.509 C -2.731,0.745 -2.863,0.08 -2.961,-0.616 c -0.132,-0.665 0.066,-0.819 0.723,-0.653 0.428,0.121 0.856,0.111 1.284,0.232 l 0.526,0.093 C -0.132,-0.895 0,-0.757 0,-0.46 Z m -3.192,8.519 c 0.823,0.142 1.646,0.218 2.468,0.36 0.099,0.005 0.165,0.042 0.263,0.047 C 0.23,8.929 0.921,8.899 1.612,8.804 1.974,8.724 2.303,8.742 2.665,8.662 3.06,8.584 3.29,8.333 3.356,7.908 3.586,6.901 3.718,5.92 3.883,4.909 4.113,3.572 4.278,2.264 4.508,0.96 4.639,0.013 4.738,-0.936 4.837,-1.852 4.935,-2.604 4.903,-3.362 5.001,-4.114 5.133,-5.325 5.199,-6.539 5.232,-7.721 5.33,-8.736 5.199,-9.763 5.166,-10.785 c 0,-0.362 -0.197,-0.537 -0.559,-0.556 -0.626,-0.065 -1.251,-0.065 -1.876,10e-4 l -1.481,0.185 -0.23,0.054 c -0.329,0.082 -0.494,0.303 -0.494,0.632 L 0.46,-8.86 c -0.098,0.916 -0.131,1.836 -0.23,2.752 -0.033,0.163 0,0.296 0,0.461 C 0.197,-5.221 0,-5.034 -0.428,-5.057 -0.79,-5.076 -1.053,-5.09 -1.415,-5.141 -1.974,-5.269 -2.567,-5.3 -3.126,-5.428 -3.488,-5.48 -3.554,-5.583 -3.652,-5.95 l -0.264,-1.593 c -0.131,-0.665 -0.164,-1.358 -0.296,-2.055 -0.164,-0.799 -0.263,-1.593 -0.362,-2.421 -0.099,-0.4 -0.23,-0.506 -0.658,-0.627 l -1.579,-0.379 c -0.099,-0.005 -0.132,-0.04 -0.23,-0.045 -0.626,-0.065 -1.152,-0.126 -1.777,-0.159 -0.362,-0.019 -0.527,0.137 -0.494,0.501 0.033,0.429 0.099,0.861 0.198,1.359 l 0.296,1.661 0.427,2.655 0.363,2.19 c 0.23,1.329 0.46,2.624 0.723,3.921 0.296,1.595 0.56,3.155 0.922,4.753 l 0.427,1.833 c 0.132,0.632 0.198,1.227 0.329,1.859 v 0.132 c 0.099,0.532 0.297,0.608 0.724,0.729 0.56,0.128 1.152,0.126 1.711,0.254 z"
           style="fill:#0083ff;fill-opacity:1;fill-rule:nonzero;stroke:none"
           id="path900"
           inkscape:connector-curvature="0" />
      </g>
      <g
         id="g902"
         transform="matrix(0.35277777,0,0,-0.35277777,90.742811,28.614151)">
        <path
           d="m 0,0 c 0.132,-0.684 0.099,-1.344 0.132,-2.099 0,-0.493 0.066,-0.951 0.099,-1.443 0.098,-0.751 0.098,-1.541 0.131,-2.296 0,-0.165 -0.033,-0.298 -0.033,-0.528 0,-0.297 -0.362,-0.578 -0.658,-0.561 l -0.625,0.033 c -0.559,0.069 -1.119,0.007 -1.678,-0.121 -0.494,-0.059 -0.987,-0.117 -1.481,-0.143 -0.427,0.01 -0.526,0.136 -0.625,0.559 -0.033,0.229 -0.033,0.36 -0.033,0.591 -0.099,0.883 -0.132,1.671 -0.132,2.559 -0.032,1.051 0,2.139 0,3.192 0,1.02 0.066,2.01 0.033,3.029 -0.033,1.051 0.066,2.109 0.066,3.162 0.033,0.759 0.033,1.515 0.033,2.272 0.033,0.923 0.033,1.844 0.132,2.771 l 0.099,1.914 c 0.032,0.067 0.032,0.166 0.032,0.264 0.066,0.3 0.264,0.442 0.56,0.425 1.02,-0.045 1.974,0.07 2.928,0.153 0.296,0.049 0.592,0.031 0.888,0.014 0.231,-0.021 0.395,-0.177 0.428,-0.438 L 0.691,10.664 C 0.79,10.11 0.757,9.549 0.79,8.991 0.79,8.432 0.79,7.84 0.823,7.282 V 6.657 c 0,-0.033 0.032,-0.098 0.098,-0.16 0.099,0.104 0.198,0.142 0.297,0.246 0.164,0.173 0.296,0.345 0.427,0.582 0.626,0.921 1.251,1.842 1.744,2.888 0.395,0.778 0.889,1.528 1.316,2.306 0.362,0.645 0.593,1.183 0.955,1.828 0.164,0.304 0.296,0.64 0.526,0.948 0.132,0.303 0.362,0.48 0.724,0.499 0.888,0.014 1.744,-0.007 2.599,-0.061 0.428,-0.011 0.856,0.045 1.284,0.067 0.032,0.002 0.032,0.035 0.065,0.036 0.494,-0.007 0.823,-0.121 0.56,-0.76 L 10.595,13.059 C 10.233,12.283 10.003,11.58 9.641,10.87 9.246,9.961 8.818,9.148 8.325,8.3 8.062,7.793 7.831,7.287 7.535,6.778 L 6.318,4.806 C 6.219,4.669 6.186,4.536 6.087,4.366 5.923,4.061 5.956,3.931 6.186,3.713 6.877,3.058 7.469,2.333 8.029,1.572 c 1.053,-1.359 2.073,-2.787 2.994,-4.285 0.23,-0.35 0.395,-0.637 0.559,-0.991 0.231,-0.415 0.099,-0.685 -0.394,-0.81 L 10.595,-4.611 C 9.97,-4.742 9.312,-4.777 8.687,-4.908 8.062,-4.974 7.469,-5.038 6.844,-5.169 6.713,-5.209 6.581,-5.183 6.449,-5.223 6.12,-5.273 5.857,-5.155 5.66,-4.902 L 4.574,-3.544 C 4.278,-3.198 3.981,-2.818 3.62,-2.476 3.258,-2.1 2.896,-1.856 2.501,-1.514 2.205,-1.267 1.941,-0.984 1.678,-0.735 L 0.592,0.195 C 0.461,0.287 0.263,0.376 0.099,0.466 0.066,0.464 0.066,0.431 0.033,0.429 0,0.23 -0.033,0.097 0,0"
           style="fill:#0083ff;fill-opacity:1;fill-rule:nonzero;stroke:none"
           id="path904"
           inkscape:connector-curvature="0" />
      </g>
      <g
         id="g906"
         transform="matrix(0.35277777,0,0,-0.35277777,51.873157,39.430386)">
        <path
           d="m 0,0 c -0.258,-0.014 -0.369,0.017 -0.627,-0.033 -0.258,-0.051 -0.406,-0.206 -0.443,-0.503 0,-0.111 0.037,-0.183 0.037,-0.293 l 0.295,-2.567 c 0.037,-0.404 0.147,-0.509 0.553,-0.598 0.775,-0.107 1.513,0.079 2.288,0.267 0.664,0.183 1.07,0.61 1.181,1.279 0.036,0.261 0.073,0.447 0.073,0.595 C 3.247,-1.01 2.878,-0.144 1.734,-0.057 1.181,0.025 0.59,0.031 0,0.037 Z M -1.328,6.313 -1.365,6.311 -1.292,4.618 c 0.038,-0.441 0.222,-0.505 0.665,-0.593 0.701,0 1.291,0.216 1.992,0.51 C 1.918,4.823 2.25,5.209 2.398,5.733 2.73,6.784 2.435,7.617 1.734,8.355 1.143,9.025 0.332,9.241 -0.517,9.455 -1.218,9.602 -1.439,9.406 -1.439,8.669 Z m -3.173,8.172 c 0.996,0.089 1.955,0.065 2.915,-0.069 0.885,-0.101 1.77,-0.091 2.619,-0.232 C 2.029,13.979 2.988,13.807 3.837,13.225 4.759,12.572 5.682,11.919 6.309,10.919 6.641,10.383 6.788,9.801 6.899,9.179 7.305,6.839 6.678,4.814 5.092,2.997 4.685,2.496 4.722,2.387 5.276,2.121 5.977,1.826 6.604,1.563 7.158,1.039 7.748,0.59 8.117,0.056 8.301,-0.561 l 0.332,-1.09 C 8.781,-2.381 8.67,-3.161 8.301,-3.956 7.895,-4.825 7.305,-5.52 6.604,-6.184 5.718,-7.079 4.685,-7.576 3.542,-8.042 3.284,-8.166 3.025,-8.18 2.767,-8.23 l -2.14,-0.407 c -1.144,-0.171 -2.177,-0.299 -3.32,-0.322 -0.996,-0.015 -1.882,-0.025 -2.878,0.034 -0.406,0.015 -0.775,0.143 -1.181,0.27 -0.295,0.095 -0.443,0.272 -0.443,0.604 0,0.775 0.037,1.551 0.074,2.328 l 0.111,2.146 0.111,2.219 c 0.037,0.703 0,1.255 0.111,1.961 0.11,1.593 0.147,3.181 0.147,4.804 -0.037,1.29 -0.037,2.581 -0.037,3.872 -0.037,1.327 -0.037,2.655 0.074,3.952 l 0.074,0.668 c 0.036,0.297 0.221,0.454 0.553,0.509 z"
           style="fill:#0083ff;fill-opacity:1;fill-rule:nonzero;stroke:none"
           id="path908"
           inkscape:connector-curvature="0" />
      </g>
      <g
         id="g910"
         transform="matrix(0.35277777,0,0,-0.35277777,55.687426,41.352108)">
        <path
           d="m 0,0 0.111,4.507 c 0,0.848 0.037,1.551 0.147,2.406 0,0.258 -0.037,0.514 0,0.775 0,0.922 0.037,1.81 0.074,2.734 0,0.553 0.074,1.037 0.111,1.592 l 0.074,1.627 c 0.036,0.851 0.036,1.626 0.147,2.48 0.037,0.703 0,1.365 0.111,2.072 l 0.11,1.961 0.074,0.299 c 0.111,0.486 0.369,0.72 0.812,0.743 0.701,0.148 1.439,0.15 2.177,0.188 0.405,0.021 0.848,0.008 1.291,-0.043 l 0.48,0.026 c 0.553,-0.009 1.033,-0.02 1.586,0.009 0.48,0.025 0.922,0.122 1.402,0.11 0.701,0.037 1.402,0.037 2.103,0.074 0.295,-0.022 0.479,-0.197 0.517,-0.453 v -0.148 c 0,-1.291 0.036,-2.507 0.036,-3.798 0,-0.443 -0.221,-0.712 -0.627,-0.807 C 10.035,16.206 9.334,16.133 8.707,16.173 8.08,16.177 7.416,16.032 6.715,15.811 6.457,15.724 6.346,15.533 6.346,15.275 c 0,-0.332 0.037,-0.662 0.037,-0.995 l 0.11,-1.101 0.074,-0.254 c 0.074,-0.365 0.295,-0.501 0.627,-0.41 0.701,0.185 1.402,0.147 2.103,0.074 0.406,-0.016 0.775,0.04 1.181,-0.049 0.406,-0.052 0.59,-0.301 0.627,-0.705 0.111,-0.88 0.148,-1.763 0.184,-2.61 V 8.708 C 11.289,8.303 11.105,8.109 10.773,8.054 10.33,7.92 9.851,7.895 9.371,7.833 8.744,7.69 8.08,7.655 7.453,7.585 7.12,7.568 6.826,7.552 6.493,7.498 5.94,7.432 5.829,7.279 5.829,6.725 L 5.977,4.409 c 0,-0.185 0,-0.332 0.037,-0.404 C 6.051,3.638 6.235,3.463 6.567,3.48 7.194,3.476 7.859,3.474 8.486,3.507 l 1.697,0.015 c 0.479,0.025 0.738,-0.219 0.775,-0.734 V 2.751 l 0.073,-3.944 v -0.221 c 0,-0.48 -0.221,-0.749 -0.701,-0.774 C 9.297,-2.206 8.264,-2.297 7.231,-2.24 L 3.8,-2.088 C 3.542,-2.065 3.284,-2.115 2.988,-2.131 L 0.738,-2.175 C 0.332,-2.159 0.111,-1.95 0.074,-1.619 l -0.111,1.617 z"
           style="fill:#0083ff;fill-opacity:1;fill-rule:nonzero;stroke:none"
           id="path912"
           inkscape:connector-curvature="0" />
      </g>
      <g
         id="g914"
         transform="matrix(0.35277777,0,0,-0.35277777,62.950625,37.834737)">
        <path
           d="m 0,0 c 0,-0.406 0.185,-0.544 0.553,-0.413 0.628,0.18 1.218,0.432 1.845,0.65 C 4.059,0.914 4.76,2.832 4.649,4.081 4.464,5.805 3.173,6.328 2.029,6.231 1.55,6.169 1.07,6.107 0.591,5.971 0.037,5.831 -0.074,5.678 -0.074,5.124 -0.037,3.909 0,2.657 0,1.439 Z M -0.332,-5.146 C -0.442,-6.184 -0.48,-7.219 -0.48,-8.252 -0.516,-9.14 -0.553,-9.99 -0.664,-10.845 l -0.295,-2.34 c 0,-0.11 -0.037,-0.296 -0.074,-0.483 -0.11,-0.301 -0.332,-0.46 -0.627,-0.475 l -1.549,0.029 c -0.923,-0.011 -1.808,0.053 -2.694,-0.031 -0.48,-0.025 -0.738,0.22 -0.701,0.702 0,1.512 0.037,3.027 0.074,4.615 0,0.701 0.037,1.293 0.037,1.995 l 0.147,2.369 v 1.032 c 0.037,0.703 0.074,1.406 0.074,2.107 0.037,1.072 0.111,2.109 0.221,3.148 l 0.406,4.411 c 0.111,1.003 0.148,1.89 0.259,2.892 l 0.147,1.225 c 0.037,0.15 0.074,0.299 0.148,0.414 0.11,0.264 0.332,0.386 0.59,0.4 0.074,-0.033 0.184,-0.027 0.332,-0.02 0.701,-0.074 1.328,0.07 2.029,0.217 1.587,0.268 3.062,0.493 4.649,0.465 0.701,0 1.402,-0.148 2.103,-0.259 0.11,0.006 0.221,-0.062 0.332,-0.056 C 6.088,11.35 7.084,10.886 7.97,10.084 8.892,9.21 9.777,8.334 10.22,7.066 10.478,6.489 10.515,5.827 10.663,5.245 10.737,4.843 10.773,4.438 10.773,4.07 10.773,3.664 10.737,3.219 10.626,2.808 10.552,2.066 10.367,1.355 10.072,0.676 9.666,-0.231 9.113,-0.961 8.412,-1.625 8.154,-1.897 7.859,-2.06 7.563,-2.333 L 7.268,-2.57 C 7.047,-2.803 7.047,-3.025 7.231,-3.237 7.785,-3.909 8.264,-4.621 8.818,-5.293 l 1.217,-1.633 c 0.702,-0.96 1.329,-1.85 1.882,-2.854 0.037,-0.071 0.111,-0.178 0.148,-0.324 0.11,-0.326 0.036,-0.551 -0.295,-0.642 -0.296,-0.127 -0.628,-0.107 -0.923,-0.16 -1.291,-0.178 -2.472,-0.24 -3.763,-0.566 -0.332,-0.091 -0.628,0.004 -0.886,0.286 -0.774,0.808 -1.549,1.616 -2.287,2.463 l -2.472,2.785 c -0.406,0.458 -0.812,0.88 -1.254,1.299 -0.111,0.105 -0.148,0.066 -0.259,0.171 -0.258,-0.272 -0.221,-0.418 -0.258,-0.678"
           style="fill:#0083ff;fill-opacity:1;fill-rule:nonzero;stroke:none"
           id="path916"
           inkscape:connector-curvature="0" />
      </g>
      <g
         id="g918"
         transform="matrix(0.35277777,0,0,-0.35277777,68.300711,41.029459)">
        <path
           d="M 0,0 C 0,0.885 0.037,1.736 0.037,2.585 L 0.111,3.068 C 0.221,3.48 0.48,3.641 0.885,3.588 L 2.657,3.349 c 0.479,-0.086 0.922,-0.099 1.402,0 0.405,0.132 0.922,0.122 1.475,0.04 0.922,-0.099 1.771,0.093 2.583,0.578 0.405,0.206 0.627,0.513 0.664,0.92 0.037,0.15 0,0.333 -0.037,0.515 C 8.596,5.911 8.301,6.264 7.859,6.499 7.453,6.737 7.084,6.902 6.641,7.026 5.682,7.381 4.722,7.7 3.763,7.982 L 2.952,8.235 C 2.14,8.487 1.439,8.856 0.812,9.377 c -1.033,0.942 -1.697,2.088 -1.955,3.513 -0.111,0.769 -0.148,1.505 -0.111,2.282 0.037,0.739 0.258,1.489 0.516,2.203 0.332,0.904 0.775,1.738 1.329,2.542 0.7,1.033 1.549,1.668 2.619,2.13 0.442,0.17 0.849,0.413 1.291,0.584 0.553,0.213 1.107,0.39 1.734,0.533 1.07,0.241 2.14,0.371 3.21,0.39 0.849,0.008 1.734,-0.02 2.619,-0.084 0.111,0.006 0.259,-0.06 0.369,-0.091 0.296,-0.096 0.406,-0.311 0.369,-0.645 -0.11,-0.486 -0.147,-0.967 -0.258,-1.453 l -0.516,-2.536 c 0,-0.036 -0.037,-0.112 -0.074,-0.225 -0.111,-0.338 -0.332,-0.534 -0.701,-0.516 -1.144,0.051 -2.177,0.07 -3.321,0.047 C 7.084,18.044 6.309,17.892 5.608,17.376 5.424,17.256 5.239,17.099 5.092,16.943 4.907,16.675 4.796,16.411 4.833,16.081 4.981,15.314 5.387,14.745 6.051,14.448 6.752,14.116 7.489,13.822 8.301,13.532 l 0.627,-0.262 1.698,-0.649 c 1.07,-0.423 2.066,-1.072 2.951,-1.8 0.628,-0.447 1.033,-1.09 1.328,-1.812 0.295,-0.686 0.591,-1.335 0.701,-2.03 0,-0.11 0.037,-0.146 0.037,-0.182 0,-1.365 -0.111,-2.663 -0.664,-3.983 C 14.647,1.985 14.167,1.259 13.614,0.677 13.024,0.055 12.433,-0.603 11.696,-1.047 10.773,-1.612 9.777,-2.07 8.633,-2.462 7.748,-2.767 6.788,-2.928 5.793,-2.98 c -0.48,0.012 -0.96,0.061 -1.44,0.146 -0.995,0.206 -1.955,0.303 -2.951,0.51 L 0.48,-2.041 C 0.148,-1.911 0,-1.66 0,-1.328 Z"
           style="fill:#0083ff;fill-opacity:1;fill-rule:nonzero;stroke:none"
           id="path920"
           inkscape:connector-curvature="0" />
      </g>
      <g
         id="g922"
         transform="matrix(0.35277777,0,0,-0.35277777,78.102186,36.376848)">
        <path
           d="m 0,0 v 0.037 c 0,0.406 -0.037,0.81 -0.074,1.214 l -0.295,3.157 -0.111,0.88 c -0.073,0.254 -0.221,0.394 -0.442,0.419 -0.185,-0.01 -0.332,0.02 -0.517,0.01 -0.701,0 -0.775,-0.078 -0.886,-0.784 L -2.915,1.692 C -3.062,0.836 -3.21,0.09 -3.32,-0.69 c -0.148,-0.746 0.073,-0.919 0.811,-0.733 0.48,0.136 0.959,0.124 1.439,0.26 l 0.59,0.105 C -0.148,-1.004 0,-0.849 0,-0.516 Z m -3.579,9.553 c 0.922,0.158 1.845,0.244 2.767,0.403 0.111,0.006 0.185,0.047 0.295,0.052 C 0.258,10.012 1.033,9.979 1.808,9.872 2.214,9.782 2.583,9.802 2.988,9.713 3.431,9.625 3.689,9.343 3.763,8.867 4.021,7.737 4.169,6.638 4.353,5.504 4.612,4.005 4.796,2.539 5.054,1.076 5.202,0.014 5.313,-1.05 5.424,-2.077 5.534,-2.92 5.497,-3.77 5.608,-4.613 c 0.147,-1.358 0.221,-2.719 0.258,-4.045 0.111,-1.138 -0.037,-2.289 -0.074,-3.435 0,-0.406 -0.221,-0.602 -0.627,-0.623 -0.701,-0.074 -1.402,-0.074 -2.103,10e-4 l -1.66,0.207 -0.259,0.061 c -0.368,0.091 -0.553,0.34 -0.553,0.709 l -0.074,1.804 c -0.11,1.027 -0.147,2.058 -0.258,3.085 -0.037,0.183 0,0.332 0,0.517 C 0.221,-5.854 0,-5.645 -0.48,-5.67 -0.885,-5.691 -1.181,-5.707 -1.586,-5.765 -2.214,-5.908 -2.878,-5.943 -3.505,-6.087 -3.911,-6.145 -3.985,-6.26 -4.095,-6.671 l -0.296,-1.786 c -0.147,-0.746 -0.184,-1.523 -0.331,-2.305 -0.185,-0.896 -0.296,-1.787 -0.406,-2.715 -0.111,-0.448 -0.259,-0.567 -0.738,-0.703 l -1.771,-0.424 c -0.111,-0.006 -0.148,-0.045 -0.258,-0.051 -0.701,-0.073 -1.292,-0.142 -1.993,-0.178 -0.406,-0.022 -0.59,0.154 -0.553,0.561 0.037,0.482 0.111,0.965 0.221,1.524 l 0.332,1.862 0.48,2.977 0.406,2.457 c 0.258,1.489 0.516,2.941 0.811,4.396 0.332,1.788 0.628,3.538 1.033,5.33 l 0.48,2.054 c 0.148,0.709 0.221,1.376 0.369,2.085 v 0.148 c 0.111,0.596 0.332,0.682 0.812,0.817 0.627,0.144 1.291,0.142 1.918,0.285 z"
           style="fill:#0083ff;fill-opacity:1;fill-rule:nonzero;stroke:none"
           id="path924"
           inkscape:connector-curvature="0" />
      </g>
      <g
         id="g926"
         transform="matrix(0.35277777,0,0,-0.35277777,86.237488,35.195643)">
        <path
           d="M 0,0 C -0.258,-0.345 -0.406,-0.685 -0.59,-1.027 -1.217,-2.24 -1.845,-3.38 -2.546,-4.487 l -1.033,-1.382 c -0.11,-0.117 -0.073,-0.152 -0.184,-0.194 -0.332,-0.276 -0.59,-0.289 -0.812,-0.006 l -0.775,1.14 c -0.627,1.037 -1.217,2.113 -1.918,3.146 -0.184,0.286 -0.369,0.497 -0.553,0.746 l -0.738,0.884 c -0.111,0.142 -0.148,0.25 -0.406,0.2 0,-0.111 -0.074,-0.262 -0.074,-0.41 0,-0.443 0.037,-0.847 0.037,-1.252 0,-0.591 -0.037,-1.183 -0.037,-1.736 0,-0.48 0.074,-0.919 0.074,-1.362 0,-0.405 -0.037,-0.776 -0.074,-1.184 l -0.147,-1.926 c -0.037,-1.146 -0.037,-2.179 -0.037,-3.323 0,-0.332 0.037,-0.662 0.037,-0.994 0,-0.553 -0.037,-0.998 -0.037,-1.551 v -0.886 c 0,-0.406 -0.222,-0.676 -0.664,-0.773 -0.554,-0.139 -1.107,-0.242 -1.661,-0.308 -0.774,-0.114 -1.549,-0.192 -2.324,-0.232 -0.516,-0.027 -0.775,0.217 -0.775,0.771 -0.037,0.92 -0.037,1.842 -0.037,2.765 0,0.775 0,1.512 0.037,2.252 v 2.656 2.473 c 0,1.365 -0.037,2.728 0.148,4.103 0.037,0.149 0,0.369 0,0.553 0.037,1.441 0,2.915 0.111,4.396 0,0.701 0.073,1.295 0.11,1.924 0.074,0.41 0.332,0.682 0.738,0.777 0.775,0.151 1.549,0.192 2.287,0.12 0.775,-0.07 1.55,-0.103 2.325,-0.026 0.59,0.031 1.033,-0.204 1.365,-0.703 0.775,-1.177 1.513,-2.43 2.435,-3.525 0.147,-0.177 0.258,-0.355 0.369,-0.534 l 0.332,-0.425 c 0.221,-0.284 0.406,-0.274 0.59,0.031 0.185,0.304 0.332,0.644 0.517,0.986 l 2.103,4.021 0.295,0.643 c 0.11,0.374 0.406,0.574 0.849,0.598 C 0.074,7.936 0.259,7.946 0.406,7.954 1.254,7.888 2.103,7.895 2.952,7.903 3.431,7.928 3.874,8.062 4.354,8.124 4.612,8.174 4.796,8.221 5.055,8.197 5.497,8.22 5.756,8.013 5.829,7.537 5.94,6.915 5.903,6.25 6.014,5.628 L 6.346,2.952 C 6.383,2.77 6.383,2.585 6.383,2.438 6.494,1.742 6.494,1.115 6.53,0.416 l 0.111,-1.95 0.111,-2.982 c 0,-0.406 -0.037,-0.703 -0.037,-1.035 l 0.111,-2.946 0.295,-3.047 c 0.037,-0.293 -0.037,-0.629 -0.037,-0.924 0,-0.406 0.037,-0.81 0.074,-1.213 0,-0.443 0.037,-0.847 0.037,-1.29 0,-0.553 -0.148,-0.709 -0.701,-0.848 l -1.882,-0.209 c -0.923,-0.086 -1.845,-0.097 -2.767,-0.183 -0.258,-0.013 -0.517,-0.063 -0.775,-0.077 -0.295,-0.015 -0.479,0.123 -0.517,0.379 -0.036,0.256 -0.036,0.404 -0.036,0.662 -0.037,0.699 -0.037,1.437 0,2.177 0,0.627 0,1.217 0.036,1.846 v 1.366 c 0.038,1.219 0.074,2.439 0.074,3.656 0.037,0.703 0,1.402 0,2.14 -0.036,1.326 -0.074,2.652 -0.074,3.98 0,0.259 -0.036,0.404 -0.147,0.472 C 0.148,0.34 0.111,0.153 0,0"
           style="fill:#0083ff;fill-opacity:1;fill-rule:nonzero;stroke:none"
           id="path928"
           inkscape:connector-curvature="0" />
      </g>
      <g
         id="g930"
         transform="matrix(0.35277777,0,0,-0.35277777,93.227814,35.584157)">
        <path
           d="m 0,0 v 0.037 c 0,0.406 -0.037,0.81 -0.074,1.214 l -0.295,3.157 -0.111,0.88 c -0.073,0.254 -0.221,0.394 -0.442,0.419 -0.185,-0.01 -0.332,0.02 -0.517,0.01 -0.701,0 -0.775,-0.078 -0.886,-0.784 L -2.915,1.692 C -3.062,0.836 -3.21,0.09 -3.32,-0.69 c -0.148,-0.746 0.073,-0.919 0.811,-0.733 0.48,0.136 0.959,0.124 1.439,0.26 l 0.59,0.105 C -0.148,-1.004 0,-0.849 0,-0.516 Z m -3.579,9.553 c 0.922,0.158 1.845,0.244 2.767,0.403 0.111,0.006 0.185,0.047 0.295,0.052 0.775,0.004 1.55,-0.029 2.325,-0.136 0.406,-0.09 0.775,-0.07 1.18,-0.16 C 3.431,9.625 3.689,9.343 3.763,8.867 4.021,7.737 4.169,6.638 4.353,5.504 4.612,4.005 4.796,2.539 5.054,1.076 5.202,0.014 5.313,-1.05 5.424,-2.077 5.534,-2.92 5.497,-3.77 5.608,-4.613 c 0.147,-1.358 0.221,-2.719 0.258,-4.045 0.111,-1.138 -0.037,-2.289 -0.073,-3.435 0,-0.406 -0.222,-0.602 -0.628,-0.623 -0.701,-0.074 -1.402,-0.074 -2.103,10e-4 l -1.66,0.207 -0.259,0.061 c -0.368,0.091 -0.553,0.34 -0.553,0.709 l -0.074,1.804 c -0.11,1.027 -0.147,2.058 -0.258,3.085 -0.037,0.183 0,0.332 0,0.517 C 0.221,-5.854 0,-5.645 -0.48,-5.67 -0.885,-5.691 -1.181,-5.707 -1.586,-5.765 -2.214,-5.908 -2.878,-5.943 -3.505,-6.087 -3.911,-6.145 -3.985,-6.26 -4.095,-6.671 l -0.296,-1.786 c -0.147,-0.746 -0.184,-1.523 -0.331,-2.305 -0.185,-0.896 -0.296,-1.787 -0.406,-2.715 -0.111,-0.448 -0.259,-0.567 -0.738,-0.703 l -1.771,-0.424 c -0.111,-0.006 -0.148,-0.045 -0.258,-0.051 -0.701,-0.073 -1.292,-0.142 -1.993,-0.178 -0.406,-0.022 -0.59,0.154 -0.553,0.561 0.037,0.482 0.111,0.965 0.221,1.524 l 0.332,1.862 0.48,2.977 0.406,2.457 c 0.258,1.489 0.516,2.941 0.811,4.396 0.332,1.788 0.628,3.538 1.033,5.33 l 0.48,2.054 c 0.148,0.709 0.222,1.376 0.369,2.085 v 0.148 c 0.111,0.596 0.332,0.682 0.812,0.817 0.627,0.144 1.291,0.142 1.918,0.285 z"
           style="fill:#0083ff;fill-opacity:1;fill-rule:nonzero;stroke:none"
           id="path932"
           inkscape:connector-curvature="0" />
      </g>
      <g
         id="g934"
         transform="matrix(0.35277777,0,0,-0.35277777,51.531316,47.99008)">
        <path
           d="m 0,0 c -0.197,-0.01 -0.282,0.013 -0.479,-0.025 -0.198,-0.039 -0.311,-0.158 -0.339,-0.384 0,-0.085 0.028,-0.14 0.028,-0.225 l 0.226,-1.962 c 0.028,-0.309 0.113,-0.389 0.423,-0.457 0.592,-0.082 1.156,0.06 1.749,0.204 0.507,0.139 0.817,0.466 0.902,0.978 0.028,0.199 0.056,0.341 0.056,0.454 C 2.482,-0.772 2.2,-0.11 1.326,-0.043 0.902,0.019 0.451,0.024 0,0.028 Z M -1.015,4.826 -1.044,4.824 -0.987,3.53 c 0.028,-0.337 0.169,-0.386 0.508,-0.453 0.535,0 0.987,0.165 1.522,0.39 0.423,0.22 0.677,0.515 0.79,0.916 C 2.087,5.186 1.861,5.823 1.326,6.387 0.874,6.899 0.254,7.064 -0.395,7.227 -0.931,7.34 -1.1,7.19 -1.1,6.626 Z m -2.426,6.247 c 0.762,0.068 1.495,0.05 2.228,-0.053 C -0.536,10.943 0.141,10.95 0.79,10.843 1.551,10.686 2.284,10.555 2.933,10.109 3.638,9.61 4.343,9.111 4.823,8.347 5.076,7.937 5.189,7.492 5.274,7.017 5.584,5.228 5.105,3.68 3.892,2.291 3.582,1.908 3.61,1.825 4.033,1.621 4.569,1.396 5.048,1.195 5.471,0.794 5.922,0.451 6.205,0.043 6.346,-0.429 L 6.6,-1.262 C 6.712,-1.82 6.628,-2.417 6.346,-3.024 6.035,-3.689 5.584,-4.22 5.048,-4.727 4.371,-5.412 3.582,-5.792 2.707,-6.148 2.51,-6.242 2.313,-6.253 2.115,-6.291 L 0.479,-6.603 c -0.874,-0.13 -1.664,-0.228 -2.538,-0.245 -0.761,-0.012 -1.438,-0.019 -2.2,0.025 -0.31,0.012 -0.592,0.11 -0.902,0.207 -0.226,0.073 -0.339,0.208 -0.339,0.461 0,0.593 0.029,1.186 0.057,1.78 l 0.084,1.64 0.085,1.697 c 0.028,0.537 0,0.959 0.085,1.499 0.084,1.217 0.112,2.431 0.112,3.673 -0.028,0.985 -0.028,1.972 -0.028,2.959 -0.028,1.014 -0.028,2.03 0.057,3.021 l 0.056,0.511 c 0.028,0.227 0.169,0.347 0.423,0.389 z"
           style="fill:#df222e;fill-opacity:1;fill-rule:nonzero;stroke:none"
           id="path936"
           inkscape:connector-curvature="0" />
      </g>
      <g
         id="g938"
         transform="matrix(0.35277777,0,0,-0.35277777,54.447059,49.459118)">
        <path
           d="m 0,0 0.084,3.445 c 0,0.649 0.029,1.186 0.113,1.839 0,0.198 -0.028,0.394 0,0.593 0,0.705 0.029,1.383 0.057,2.089 0,0.424 0.056,0.793 0.085,1.218 l 0.056,1.244 c 0.028,0.65 0.028,1.242 0.113,1.895 0.028,0.538 0,1.044 0.084,1.584 l 0.085,1.499 0.056,0.229 c 0.085,0.371 0.282,0.55 0.621,0.568 0.535,0.113 1.1,0.114 1.664,0.144 0.31,0.016 0.648,0.006 0.987,-0.033 l 0.367,0.019 c 0.423,-0.006 0.789,-0.015 1.212,0.007 0.367,0.019 0.705,0.094 1.072,0.084 0.536,0.029 1.071,0.029 1.607,0.057 0.226,-0.017 0.367,-0.15 0.395,-0.346 v -0.113 c 0,-0.987 0.028,-1.916 0.028,-2.903 0,-0.339 -0.169,-0.545 -0.479,-0.618 C 7.671,12.388 7.135,12.332 6.656,12.363 6.177,12.366 5.669,12.255 5.133,12.086 4.936,12.019 4.851,11.874 4.851,11.676 c 0,-0.253 0.028,-0.506 0.028,-0.76 L 4.964,10.075 5.02,9.88 C 5.076,9.601 5.246,9.498 5.499,9.567 6.035,9.708 6.571,9.68 7.107,9.623 7.417,9.611 7.699,9.654 8.01,9.586 8.32,9.546 8.461,9.356 8.489,9.047 8.574,8.374 8.602,7.699 8.63,7.052 V 6.657 C 8.63,6.347 8.489,6.198 8.235,6.157 7.897,6.055 7.53,6.035 7.164,5.988 6.684,5.878 6.177,5.852 5.697,5.798 5.443,5.785 5.218,5.773 4.964,5.732 4.541,5.681 4.456,5.564 4.456,5.141 L 4.569,3.37 c 0,-0.141 0,-0.254 0.028,-0.309 C 4.625,2.781 4.766,2.647 5.02,2.66 5.499,2.658 6.007,2.656 6.487,2.681 L 7.784,2.692 C 8.15,2.712 8.348,2.525 8.376,2.131 V 2.103 l 0.057,-3.015 v -0.169 c 0,-0.367 -0.17,-0.573 -0.536,-0.592 -0.79,-0.013 -1.58,-0.083 -2.369,-0.04 L 2.905,-1.596 C 2.707,-1.578 2.51,-1.617 2.284,-1.629 l -1.72,-0.034 c -0.31,0.013 -0.48,0.173 -0.508,0.425 l -0.084,1.237 z"
           style="fill:#df222e;fill-opacity:1;fill-rule:nonzero;stroke:none"
           id="path940"
           inkscape:connector-curvature="0" />
      </g>
      <g
         id="g942"
         transform="matrix(0.35277777,0,0,-0.35277777,59.999111,46.770351)">
        <path
           d="M 0,0 C 0,-0.31 0.141,-0.416 0.423,-0.316 0.902,-0.178 1.354,0.015 1.833,0.181 3.102,0.698 3.638,2.165 3.554,3.119 3.413,4.438 2.426,4.837 1.551,4.763 1.185,4.716 0.818,4.668 0.451,4.565 0.028,4.458 -0.056,4.34 -0.056,3.917 -0.028,2.988 0,2.031 0,1.1 Z M -0.254,-3.933 C -0.338,-4.728 -0.367,-5.519 -0.367,-6.308 -0.395,-6.987 -0.423,-7.637 -0.508,-8.29 l -0.225,-1.789 c 0,-0.084 -0.028,-0.227 -0.057,-0.369 -0.084,-0.23 -0.253,-0.352 -0.479,-0.364 l -1.184,0.023 c -0.706,-0.009 -1.382,0.04 -2.059,-0.024 -0.367,-0.019 -0.564,0.168 -0.536,0.537 0,1.156 0.028,2.314 0.056,3.528 0,0.536 0.028,0.988 0.028,1.524 l 0.113,1.811 v 0.79 c 0.028,0.537 0.057,1.075 0.057,1.61 0.028,0.82 0.084,1.612 0.169,2.406 l 0.31,3.373 c 0.085,0.766 0.113,1.444 0.198,2.21 l 0.112,0.937 c 0.028,0.114 0.057,0.228 0.113,0.316 0.085,0.202 0.254,0.295 0.451,0.305 0.057,-0.025 0.141,-0.02 0.254,-0.014 0.536,-0.057 1.015,0.053 1.551,0.165 1.213,0.205 2.341,0.377 3.554,0.356 0.536,0 1.072,-0.113 1.607,-0.198 C 3.61,8.848 3.695,8.796 3.779,8.8 4.654,8.677 5.415,8.322 6.092,7.708 6.797,7.04 7.474,6.371 7.812,5.401 8.01,4.961 8.038,4.454 8.151,4.009 8.207,3.702 8.235,3.393 8.235,3.111 8.235,2.801 8.207,2.461 8.122,2.146 8.066,1.579 7.925,1.036 7.699,0.516 7.389,-0.177 6.966,-0.735 6.43,-1.242 6.233,-1.45 6.007,-1.575 5.782,-1.784 L 5.556,-1.965 C 5.387,-2.143 5.387,-2.312 5.528,-2.474 5.951,-2.988 6.317,-3.533 6.74,-4.046 L 7.671,-5.295 C 8.207,-6.028 8.687,-6.708 9.11,-7.476 9.138,-7.531 9.194,-7.612 9.223,-7.724 9.307,-7.973 9.251,-8.145 8.997,-8.215 8.771,-8.312 8.517,-8.296 8.292,-8.337 7.305,-8.473 6.402,-8.52 5.415,-8.769 5.161,-8.839 4.936,-8.766 4.738,-8.551 4.146,-7.933 3.554,-7.316 2.99,-6.668 L 1.1,-4.539 c -0.31,0.35 -0.621,0.672 -0.959,0.993 -0.085,0.08 -0.113,0.05 -0.197,0.131 -0.198,-0.208 -0.169,-0.32 -0.198,-0.518"
           style="fill:#df222e;fill-opacity:1;fill-rule:nonzero;stroke:none"
           id="path944"
           inkscape:connector-curvature="0" />
      </g>
      <g
         id="g946"
         transform="matrix(0.35277777,0,0,-0.35277777,65.37248,45.971275)">
        <path
           d="m 0,0 c 0,-0.311 0,-0.536 -0.028,-0.848 -0.085,-0.681 -0.113,-1.387 -0.113,-2.065 v -0.451 c 0,-0.648 -0.028,-1.27 -0.057,-1.92 0,-0.311 0.142,-0.36 0.395,-0.177 0.141,0.12 0.311,0.242 0.451,0.39 l 1.241,1.447 c 0.254,0.324 0.48,0.618 0.677,0.938 0.593,1.131 0.931,2.277 0.931,3.518 0,1.015 -0.31,1.817 -1.072,2.454 C 1.861,3.792 1.184,3.897 0.423,3.942 0.225,3.96 0.084,3.84 0.028,3.583 0.028,3.499 0,3.469 0.028,3.386 0.028,2.906 0.056,2.456 0.056,1.892 0.056,1.328 0.028,0.65 0,0 m -4.344,-6.856 c 0,1.157 -0.028,2.283 0,3.498 0,0.592 0.057,1.159 0.085,1.753 0.085,0.822 0.057,1.61 0.141,2.404 0.029,0.82 0.057,1.611 0.141,2.49 0,0.197 0,0.366 0.028,0.565 0,0.762 0.028,1.496 0.057,2.259 0,0.395 0.028,0.82 0.084,1.246 0.029,0.283 0.17,0.432 0.452,0.475 0.564,0.114 1.156,0.201 1.72,0.231 0.874,0.074 1.749,0.176 2.623,0.137 C 2.143,8.178 3.243,7.982 4.258,7.387 4.794,7.076 5.274,6.678 5.697,6.249 5.838,6.116 5.951,5.952 6.035,5.816 6.515,4.91 6.909,4 7.107,2.995 7.276,2.214 7.304,1.454 7.164,0.714 L 6.938,-0.962 C 6.853,-1.615 6.628,-2.219 6.402,-2.88 6.317,-3.194 6.176,-3.484 6.092,-3.799 5.753,-4.69 5.33,-5.531 4.823,-6.319 4.597,-6.641 4.343,-6.88 4.117,-7.145 3.807,-7.472 3.582,-7.822 3.271,-8.092 2.566,-8.778 1.861,-9.407 1.156,-10.036 c -0.366,-0.33 -0.846,-0.467 -1.297,-0.632 -0.649,-0.232 -1.297,-0.407 -1.975,-0.64 -0.197,-0.095 -0.394,-0.048 -0.591,-0.087 -0.311,-0.016 -0.565,-0.058 -0.819,-0.071 l -0.197,-0.01 c -0.31,0.012 -0.508,0.142 -0.564,0.449 -0.028,0.253 -0.057,0.477 -0.057,0.731 -0.028,0.534 0,1.043 0,1.579 z"
           style="fill:#df222e;fill-opacity:1;fill-rule:nonzero;stroke:none"
           id="path948"
           inkscape:connector-curvature="0" />
      </g>
      <g
         id="g950"
         transform="matrix(0.35277777,0,0,-0.35277777,71.193314,45.676246)">
        <path
           d="M 0,0 V 0.028 C 0,0.339 -0.028,0.647 -0.056,0.956 L -0.282,3.369 -0.367,4.042 C -0.423,4.237 -0.536,4.343 -0.705,4.363 -0.846,4.355 -0.959,4.378 -1.1,4.37 -1.636,4.37 -1.692,4.311 -1.777,3.771 L -2.228,1.294 c -0.113,-0.655 -0.226,-1.225 -0.31,-1.822 -0.113,-0.57 0.056,-0.702 0.62,-0.559 0.367,0.103 0.733,0.094 1.1,0.198 l 0.451,0.08 C -0.113,-0.768 0,-0.649 0,-0.395 Z m -2.736,7.302 c 0.705,0.122 1.41,0.187 2.116,0.308 0.084,0.005 0.141,0.036 0.225,0.041 C 0.197,7.653 0.79,7.628 1.382,7.546 1.692,7.478 1.974,7.493 2.284,7.424 2.623,7.357 2.82,7.142 2.877,6.778 3.074,5.915 3.187,5.074 3.328,4.207 3.526,3.062 3.666,1.941 3.864,0.823 3.977,0.011 4.061,-0.803 4.146,-1.588 4.23,-2.232 4.202,-2.882 4.287,-3.526 4.4,-4.564 4.456,-5.604 4.484,-6.618 4.569,-7.488 4.456,-8.368 4.428,-9.244 4.428,-9.555 4.259,-9.704 3.949,-9.721 3.413,-9.777 2.877,-9.777 2.341,-9.72 l -1.269,0.159 -0.198,0.046 c -0.282,0.07 -0.423,0.26 -0.423,0.542 l -0.056,1.379 c -0.085,0.785 -0.113,1.573 -0.198,2.359 -0.028,0.139 0,0.253 0,0.395 C 0.169,-4.475 0,-4.315 -0.367,-4.334 -0.677,-4.351 -0.902,-4.362 -1.213,-4.407 -1.692,-4.516 -2.2,-4.543 -2.679,-4.653 -2.99,-4.697 -3.046,-4.785 -3.131,-5.1 l -0.225,-1.365 c -0.113,-0.57 -0.141,-1.164 -0.254,-1.762 -0.141,-0.684 -0.226,-1.366 -0.31,-2.075 -0.085,-0.343 -0.198,-0.434 -0.564,-0.537 l -1.354,-0.325 c -0.085,-0.004 -0.113,-0.034 -0.197,-0.039 -0.536,-0.056 -0.988,-0.108 -1.524,-0.136 -0.31,-0.016 -0.451,0.118 -0.423,0.429 0.029,0.368 0.085,0.738 0.17,1.165 l 0.253,1.424 0.367,2.275 0.311,1.878 c 0.197,1.139 0.394,2.249 0.62,3.36 0.254,1.368 0.479,2.705 0.79,4.075 l 0.366,1.57 c 0.113,0.542 0.169,1.052 0.282,1.594 v 0.113 c 0.085,0.456 0.254,0.521 0.621,0.625 0.479,0.11 0.987,0.108 1.466,0.218 z"
           style="fill:#df222e;fill-opacity:1;fill-rule:nonzero;stroke:none"
           id="path952"
           inkscape:connector-curvature="0" />
      </g>
      <g
         id="g954"
         transform="matrix(0.35277777,0,0,-0.35277777,77.412152,44.773276)">
        <path
           d="M 0,0 C -0.197,-0.264 -0.31,-0.524 -0.451,-0.785 -0.931,-1.712 -1.41,-2.584 -1.946,-3.43 l -0.79,-1.057 c -0.084,-0.088 -0.056,-0.115 -0.14,-0.148 -0.255,-0.21 -0.452,-0.221 -0.621,-0.004 l -0.592,0.871 c -0.48,0.793 -0.931,1.615 -1.467,2.405 -0.141,0.218 -0.282,0.38 -0.423,0.57 l -0.564,0.676 c -0.085,0.108 -0.113,0.191 -0.31,0.153 0,-0.085 -0.056,-0.2 -0.056,-0.313 0,-0.339 0.028,-0.648 0.028,-0.958 0,-0.451 -0.028,-0.904 -0.028,-1.327 0,-0.366 0.056,-0.702 0.056,-1.041 0,-0.31 -0.028,-0.593 -0.056,-0.905 L -7.022,-5.98 c -0.029,-0.876 -0.029,-1.666 -0.029,-2.54 0,-0.254 0.029,-0.506 0.029,-0.76 0,-0.423 -0.029,-0.763 -0.029,-1.186 v -0.677 c 0,-0.31 -0.169,-0.516 -0.507,-0.591 -0.423,-0.107 -0.846,-0.185 -1.269,-0.235 -0.593,-0.088 -1.185,-0.147 -1.777,-0.178 -0.395,-0.021 -0.593,0.166 -0.593,0.589 -0.028,0.704 -0.028,1.409 -0.028,2.114 0,0.592 0,1.156 0.028,1.722 v 2.03 1.89 c 0,1.044 -0.028,2.086 0.113,3.137 0.029,0.114 0,0.282 0,0.423 0.029,1.101 0,2.228 0.085,3.36 0,0.536 0.057,0.99 0.085,1.471 0.056,0.313 0.253,0.521 0.564,0.594 0.592,0.116 1.184,0.147 1.748,0.091 0.592,-0.053 1.185,-0.078 1.777,-0.019 0.451,0.024 0.79,-0.156 1.043,-0.538 0.593,-0.9 1.157,-1.857 1.862,-2.694 0.113,-0.135 0.198,-0.272 0.282,-0.409 l 0.254,-0.325 c 0.169,-0.216 0.31,-0.209 0.451,0.024 0.141,0.233 0.254,0.493 0.395,0.754 l 1.607,3.074 0.226,0.491 c 0.085,0.286 0.31,0.439 0.649,0.457 C 0.056,6.067 0.198,6.074 0.311,6.08 0.959,6.03 1.608,6.035 2.256,6.041 2.623,6.06 2.962,6.163 3.328,6.21 3.526,6.248 3.666,6.284 3.864,6.266 4.202,6.284 4.4,6.125 4.456,5.761 4.541,5.286 4.512,4.777 4.597,4.302 L 4.851,2.257 C 4.879,2.117 4.879,1.976 4.879,1.863 4.964,1.332 4.964,0.852 4.992,0.318 l 0.085,-1.49 0.084,-2.28 c 0,-0.311 -0.028,-0.537 -0.028,-0.791 l 0.085,-2.252 0.225,-2.329 c 0.028,-0.224 -0.028,-0.481 -0.028,-0.707 0,-0.31 0.028,-0.619 0.056,-0.927 0,-0.339 0.029,-0.648 0.029,-0.986 0,-0.423 -0.113,-0.542 -0.536,-0.649 l -1.438,-0.159 c -0.706,-0.066 -1.41,-0.074 -2.116,-0.14 -0.197,-0.01 -0.395,-0.048 -0.592,-0.059 -0.226,-0.012 -0.367,0.094 -0.395,0.29 -0.028,0.196 -0.028,0.308 -0.028,0.506 -0.028,0.534 -0.028,1.098 0,1.664 0,0.479 0,0.93 0.028,1.411 v 1.044 c 0.028,0.932 0.056,1.864 0.056,2.795 0.029,0.537 0,1.072 0,1.636 -0.028,1.014 -0.056,2.027 -0.056,3.043 0,0.197 -0.028,0.308 -0.112,0.36 C 0.113,0.26 0.085,0.117 0,0"
           style="fill:#df222e;fill-opacity:1;fill-rule:nonzero;stroke:none"
           id="path956"
           inkscape:connector-curvature="0" />
      </g>
      <g
         id="g958"
         transform="matrix(0.35277777,0,0,-0.35277777,81.711065,44.577802)">
        <path
           d="m 0,0 v -0.79 l 0.113,-1.601 c 0.028,-0.591 0.112,-0.756 0.818,-0.634 0.705,0.121 1.297,0.491 1.776,1.108 0.311,0.383 0.508,0.788 0.621,1.245 C 3.469,0.125 3.3,0.822 2.961,1.565 2.792,1.923 2.538,2.192 2.2,2.371 1.551,2.704 0.902,2.726 0.197,2.689 0,2.679 -0.113,2.561 -0.141,2.305 c 0,-0.225 0.028,-0.45 0.028,-0.675 0.085,-0.532 0.057,-1.069 0.141,-1.6 z M 7.022,-1.86 C 6.881,-2.347 6.656,-2.782 6.289,-3.168 5.584,-4.022 4.907,-4.876 4.146,-5.734 3.977,-5.912 3.807,-6.061 3.638,-6.155 2.707,-6.683 1.749,-7.1 0.648,-7.355 0.395,-7.425 0.282,-7.572 0.254,-7.827 v -2.087 -0.423 -0.452 -0.93 c 0,-0.254 -0.141,-0.402 -0.395,-0.416 -0.705,0.048 -1.382,-0.27 -2.059,-0.39 -0.451,-0.052 -0.902,-0.075 -1.326,-0.182 -0.197,-0.039 -0.338,-0.074 -0.535,-0.084 -0.311,-0.045 -0.508,0.086 -0.593,0.392 -0.028,0.196 -0.028,0.308 -0.028,0.506 0,0.423 0,0.789 0.028,1.214 0,0.113 -0.056,0.251 -0.028,0.393 0,0.48 0.028,0.961 0.028,1.44 0.029,0.312 0,0.621 0,0.931 0,1.128 -0.028,2.255 0,3.356 0,0.902 0.029,1.806 0.085,2.712 0.028,0.904 0.085,1.838 0.169,2.773 0.085,0.991 0.113,1.98 0.198,2.971 0.084,0.653 0.056,1.244 0.141,1.897 0.028,0.369 0.028,0.594 0.564,0.763 0.535,0.141 0.958,0.191 1.494,0.304 0.706,0.065 1.382,0.129 2.087,0.251 C 0.169,7.116 0.282,7.094 0.395,7.1 1.156,7.027 1.918,6.982 2.679,6.796 3.131,6.679 3.638,6.649 4.061,6.417 4.625,6.137 5.133,5.825 5.556,5.48 5.697,5.347 5.838,5.213 5.979,5.023 6.74,4.076 7.192,3 7.389,1.797 7.474,1.492 7.445,1.18 7.445,0.87 7.474,-0.06 7.276,-0.973 7.022,-1.86"
           style="fill:#df222e;fill-opacity:1;fill-rule:nonzero;stroke:none"
           id="path960"
           inkscape:connector-curvature="0" />
      </g>
      <g
         id="g962"
         transform="matrix(0.35277777,0,0,-0.35277777,87.521882,44.820514)">
        <path
           d="M 0,0 V 0.028 C 0,0.339 -0.028,0.647 -0.056,0.956 L -0.282,3.369 -0.367,4.042 C -0.423,4.237 -0.536,4.343 -0.705,4.363 -0.846,4.355 -0.959,4.378 -1.1,4.37 -1.636,4.37 -1.692,4.311 -1.777,3.771 L -2.228,1.294 c -0.113,-0.655 -0.226,-1.225 -0.31,-1.822 -0.113,-0.57 0.056,-0.702 0.62,-0.559 0.367,0.103 0.733,0.094 1.1,0.198 l 0.451,0.08 C -0.113,-0.768 0,-0.649 0,-0.395 Z m -2.736,7.302 c 0.705,0.122 1.41,0.187 2.116,0.308 0.084,0.005 0.141,0.036 0.225,0.041 C 0.197,7.653 0.79,7.628 1.382,7.546 1.692,7.478 1.974,7.493 2.284,7.424 2.623,7.357 2.82,7.142 2.877,6.778 3.074,5.915 3.187,5.074 3.328,4.207 3.525,3.062 3.666,1.941 3.864,0.823 3.977,0.011 4.061,-0.803 4.146,-1.588 4.23,-2.232 4.202,-2.882 4.287,-3.526 4.4,-4.564 4.456,-5.604 4.484,-6.618 4.569,-7.488 4.456,-8.368 4.428,-9.244 4.428,-9.554 4.259,-9.704 3.949,-9.721 3.413,-9.777 2.877,-9.777 2.341,-9.72 l -1.269,0.159 -0.198,0.046 c -0.282,0.07 -0.423,0.26 -0.423,0.542 l -0.056,1.379 c -0.085,0.785 -0.113,1.573 -0.198,2.359 -0.028,0.139 0,0.253 0,0.395 C 0.169,-4.475 0,-4.315 -0.367,-4.334 -0.677,-4.351 -0.902,-4.362 -1.213,-4.407 -1.692,-4.516 -2.2,-4.543 -2.679,-4.653 -2.99,-4.697 -3.046,-4.785 -3.131,-5.1 l -0.225,-1.365 c -0.113,-0.57 -0.141,-1.164 -0.254,-1.762 -0.141,-0.684 -0.226,-1.366 -0.31,-2.075 -0.085,-0.343 -0.198,-0.434 -0.564,-0.537 l -1.354,-0.325 c -0.085,-0.004 -0.113,-0.034 -0.197,-0.039 -0.536,-0.056 -0.988,-0.108 -1.524,-0.136 -0.31,-0.016 -0.451,0.118 -0.423,0.429 0.029,0.368 0.085,0.738 0.17,1.165 l 0.253,1.424 0.367,2.275 0.311,1.878 c 0.197,1.139 0.394,2.249 0.62,3.36 0.254,1.368 0.479,2.705 0.79,4.075 l 0.366,1.57 c 0.113,0.542 0.169,1.053 0.282,1.594 v 0.113 c 0.085,0.456 0.254,0.521 0.621,0.625 0.479,0.11 0.987,0.108 1.466,0.218 z"
           style="fill:#df222e;fill-opacity:1;fill-rule:nonzero;stroke:none"
           id="path964"
           inkscape:connector-curvature="0" />
      </g>
      <g
         id="g966"
         transform="matrix(0.35277777,0,0,-0.35277777,91.253422,46.545103)">
        <path
           d="m 0,0 c 0.113,-0.586 0.085,-1.152 0.113,-1.799 0,-0.423 0.056,-0.815 0.085,-1.237 0.084,-0.644 0.084,-1.321 0.112,-1.968 0,-0.141 -0.028,-0.255 -0.028,-0.453 0,-0.254 -0.31,-0.495 -0.564,-0.481 l -0.536,0.029 c -0.479,0.059 -0.959,0.006 -1.438,-0.104 -0.423,-0.05 -0.846,-0.1 -1.269,-0.123 -0.367,0.009 -0.452,0.118 -0.536,0.48 -0.028,0.196 -0.028,0.309 -0.028,0.506 -0.085,0.757 -0.113,1.433 -0.113,2.194 -0.028,0.901 0,1.833 0,2.736 0,0.874 0.056,1.723 0.028,2.596 -0.028,0.901 0.057,1.808 0.057,2.71 0.028,0.651 0.028,1.299 0.028,1.948 0.028,0.791 0.028,1.58 0.112,2.375 l 0.085,1.64 c 0.028,0.058 0.028,0.142 0.028,0.227 0.057,0.257 0.226,0.379 0.48,0.364 0.874,-0.039 1.692,0.06 2.51,0.131 0.254,0.042 0.507,0.027 0.761,0.012 0.198,-0.018 0.339,-0.152 0.367,-0.376 L 0.592,9.14 C 0.677,8.665 0.649,8.185 0.677,7.707 c 0,-0.48 0,-0.987 0.028,-1.465 V 5.706 c 0,-0.029 0.028,-0.084 0.085,-0.137 0.084,0.089 0.169,0.122 0.254,0.211 0.141,0.148 0.253,0.295 0.366,0.499 0.536,0.789 1.072,1.579 1.495,2.475 0.338,0.666 0.761,1.309 1.128,1.977 0.31,0.552 0.508,1.014 0.818,1.566 0.141,0.261 0.254,0.549 0.451,0.813 0.113,0.26 0.311,0.411 0.621,0.428 0.761,0.011 1.495,-0.007 2.228,-0.053 0.366,-0.009 0.733,0.039 1.1,0.058 0.028,0.001 0.028,0.029 0.056,0.031 0.423,-0.006 0.705,-0.104 0.48,-0.652 L 9.081,11.193 C 8.771,10.528 8.574,9.925 8.264,9.317 7.925,8.538 7.559,7.841 7.135,7.114 6.91,6.68 6.712,6.246 6.459,5.81 L 5.415,4.119 C 5.33,4.002 5.302,3.888 5.218,3.742 5.077,3.481 5.105,3.37 5.302,3.183 5.894,2.621 6.402,1.999 6.882,1.348 7.784,0.182 8.658,-1.041 9.448,-2.325 c 0.198,-0.3 0.339,-0.547 0.479,-0.849 0.198,-0.357 0.085,-0.588 -0.338,-0.695 L 9.081,-3.952 C 8.545,-4.065 7.982,-4.094 7.446,-4.207 6.91,-4.263 6.402,-4.318 5.866,-4.431 5.754,-4.465 5.641,-4.443 5.528,-4.477 5.246,-4.52 5.02,-4.419 4.851,-4.202 L 3.92,-3.038 C 3.666,-2.741 3.413,-2.416 3.102,-2.122 2.792,-1.8 2.482,-1.59 2.144,-1.298 1.89,-1.086 1.664,-0.844 1.438,-0.63 L 0.508,0.168 C 0.395,0.246 0.226,0.322 0.085,0.399 0.056,0.398 0.056,0.37 0.028,0.368 0,0.197 -0.028,0.083 0,0"
           style="fill:#df222e;fill-opacity:1;fill-rule:nonzero;stroke:none"
           id="path968"
           inkscape:connector-curvature="0" />
      </g>
      <g
         id="g970"
         transform="matrix(0.35277777,0,0,-0.35277777,54.032369,59.729396)">
        <path
           d="m 0,0 c -0.394,-0.021 -0.563,0.026 -0.957,-0.05 -0.394,-0.077 -0.619,-0.315 -0.676,-0.767 0,-0.17 0.057,-0.279 0.057,-0.448 l 0.45,-3.918 c 0.056,-0.616 0.225,-0.776 0.844,-0.912 1.182,-0.164 2.309,0.121 3.491,0.408 1.013,0.278 1.633,0.93 1.802,1.952 0.056,0.397 0.112,0.682 0.112,0.907 C 4.954,-1.542 4.391,-0.22 2.646,-0.087 1.802,0.038 0.9,0.047 0,0.056 Z M -2.027,9.633 -2.084,9.631 -1.971,7.046 c 0.057,-0.672 0.338,-0.77 1.014,-0.904 1.07,0 1.97,0.329 3.04,0.779 0.844,0.439 1.351,1.028 1.576,1.828 0.507,1.603 0.057,2.874 -1.013,4.001 -0.901,1.022 -2.139,1.351 -3.434,1.677 -1.07,0.225 -1.407,-0.073 -1.407,-1.199 z m -4.841,12.47 c 1.519,0.136 2.983,0.1 4.447,-0.104 1.351,-0.155 2.702,-0.14 3.997,-0.354 C 3.097,21.331 4.56,21.069 5.855,20.18 7.262,19.184 8.67,18.188 9.627,16.662 10.134,15.844 10.359,14.956 10.528,14.007 11.147,10.437 10.19,7.346 7.77,4.573 7.15,3.809 7.206,3.643 8.051,3.237 9.121,2.786 10.078,2.386 10.922,1.585 11.823,0.901 12.386,0.086 12.667,-0.856 l 0.507,-1.663 c 0.225,-1.114 0.056,-2.305 -0.507,-3.517 -0.619,-1.327 -1.52,-2.388 -2.589,-3.401 -1.352,-1.366 -2.928,-2.124 -4.673,-2.835 -0.394,-0.189 -0.789,-0.21 -1.183,-0.287 L 0.957,-13.18 c -1.745,-0.261 -3.322,-0.456 -5.067,-0.491 -1.52,-0.024 -2.871,-0.038 -4.391,0.051 -0.62,0.024 -1.183,0.219 -1.802,0.412 -0.45,0.146 -0.676,0.415 -0.676,0.922 0,1.182 0.057,2.368 0.113,3.553 l 0.169,3.274 0.169,3.387 c 0.056,1.073 0,1.914 0.169,2.993 0.169,2.429 0.225,4.853 0.225,7.33 -0.056,1.968 -0.056,3.939 -0.056,5.909 -0.056,2.024 -0.056,4.051 0.112,6.03 l 0.113,1.019 c 0.056,0.453 0.338,0.693 0.844,0.776 z"
           style="fill:#df222e;fill-opacity:1;fill-rule:nonzero;stroke:none"
           id="path972"
           inkscape:connector-curvature="0" />
      </g>
      <g
         id="g974"
         transform="matrix(0.35277777,0,0,-0.35277777,59.852814,62.661861)">
        <path
           d="m 0,0 0.169,6.877 c 0,1.295 0.056,2.368 0.225,3.672 0,0.394 -0.056,0.785 0,1.182 0,1.407 0.057,2.762 0.113,4.172 0,0.844 0.112,1.583 0.169,2.43 l 0.112,2.483 c 0.056,1.298 0.056,2.48 0.225,3.784 0.057,1.073 0,2.083 0.169,3.162 l 0.169,2.992 0.113,0.456 c 0.169,0.741 0.563,1.099 1.238,1.135 1.07,0.225 2.196,0.227 3.322,0.286 0.619,0.033 1.295,0.012 1.971,-0.065 l 0.732,0.038 c 0.844,-0.012 1.576,-0.03 2.42,0.015 0.732,0.038 1.407,0.186 2.14,0.168 1.069,0.056 2.139,0.056 3.208,0.112 0.451,-0.032 0.732,-0.3 0.789,-0.691 v -0.225 c 0,-1.97 0.056,-3.825 0.056,-5.795 0,-0.676 -0.338,-1.088 -0.957,-1.233 -1.07,-0.225 -2.139,-0.337 -3.096,-0.275 -0.957,0.006 -1.971,-0.216 -3.041,-0.553 -0.394,-0.133 -0.562,-0.424 -0.562,-0.818 0,-0.507 0.056,-1.01 0.056,-1.518 l 0.168,-1.68 0.113,-0.388 c 0.113,-0.557 0.451,-0.764 0.957,-0.625 1.07,0.281 2.14,0.224 3.209,0.112 0.62,-0.024 1.183,0.062 1.802,-0.074 0.619,-0.081 0.901,-0.46 0.957,-1.077 0.169,-1.342 0.225,-2.69 0.281,-3.982 v -0.788 c 0,-0.62 -0.281,-0.916 -0.788,-0.999 C 15.764,12.086 15.032,12.048 14.3,11.953 13.343,11.734 12.33,11.681 11.373,11.575 10.865,11.548 10.416,11.525 9.908,11.441 9.064,11.341 8.895,11.107 8.895,10.263 L 9.121,6.727 c 0,-0.281 0,-0.506 0.056,-0.616 0.056,-0.56 0.337,-0.827 0.844,-0.8 0.957,-0.006 1.971,-0.01 2.928,0.041 l 2.589,0.023 C 16.27,5.413 16.665,5.04 16.721,4.254 V 4.198 l 0.112,-6.018 v -0.338 c 0,-0.732 -0.338,-1.143 -1.069,-1.182 -1.577,-0.026 -3.153,-0.165 -4.729,-0.079 L 5.799,-3.187 C 5.405,-3.151 5.011,-3.228 4.56,-3.252 L 1.126,-3.319 c -0.619,0.024 -0.957,0.344 -1.013,0.848 l -0.17,2.468 z"
           style="fill:#df222e;fill-opacity:1;fill-rule:nonzero;stroke:none"
           id="path976"
           inkscape:connector-curvature="0" />
      </g>
      <g
         id="g978"
         transform="matrix(0.35277777,0,0,-0.35277777,67.917314,62.755557)">
        <path
           d="M 0,0 C 0,1.351 0.057,2.649 0.057,3.944 L 0.169,4.682 C 0.338,5.31 0.732,5.556 1.351,5.476 L 4.054,5.111 C 4.786,4.98 5.461,4.959 6.193,5.11 6.812,5.311 7.6,5.296 8.445,5.171 c 1.407,-0.15 2.702,0.142 3.941,0.883 0.619,0.314 0.957,0.782 1.014,1.404 0.056,0.228 0,0.507 -0.057,0.785 -0.225,0.777 -0.675,1.316 -1.351,1.675 -0.619,0.362 -1.183,0.613 -1.858,0.803 C 8.67,11.264 7.206,11.75 5.743,12.18 l -1.239,0.386 c -1.239,0.385 -2.309,0.949 -3.266,1.743 -1.576,1.437 -2.589,3.185 -2.983,5.361 -0.169,1.173 -0.225,2.296 -0.169,3.482 0.056,1.128 0.394,2.272 0.788,3.362 0.507,1.378 1.183,2.652 2.027,3.879 1.069,1.575 2.364,2.544 3.997,3.249 0.675,0.261 1.295,0.631 1.97,0.892 0.845,0.326 1.689,0.595 2.646,0.814 1.633,0.367 3.266,0.565 4.899,0.594 1.295,0.012 2.646,-0.03 3.997,-0.128 0.169,0.009 0.394,-0.092 0.563,-0.139 0.45,-0.146 0.619,-0.474 0.563,-0.984 -0.169,-0.741 -0.225,-1.476 -0.394,-2.217 l -0.788,-3.869 c 0,-0.056 -0.057,-0.172 -0.113,-0.344 -0.169,-0.515 -0.506,-0.814 -1.07,-0.788 -1.745,0.078 -3.322,0.108 -5.066,0.072 C 10.809,27.534 9.627,27.303 8.557,26.515 8.276,26.332 7.995,26.092 7.77,25.855 7.488,25.446 7.319,25.042 7.375,24.539 7.6,23.368 8.22,22.5 9.233,22.047 c 1.07,-0.507 2.196,-0.955 3.435,-1.397 l 0.956,-0.4 2.59,-0.991 c 1.633,-0.646 3.153,-1.636 4.505,-2.747 0.957,-0.682 1.576,-1.663 2.026,-2.765 0.45,-1.046 0.901,-2.036 1.069,-3.097 0,-0.169 0.057,-0.222 0.057,-0.278 0,-2.083 -0.169,-4.063 -1.014,-6.077 C 22.351,3.03 21.619,1.921 20.774,1.033 19.874,0.084 18.973,-0.92 17.847,-1.598 16.439,-2.46 14.919,-3.159 13.174,-3.757 11.823,-4.222 10.359,-4.468 8.839,-4.548 8.107,-4.529 7.375,-4.455 6.643,-4.325 5.123,-4.01 3.66,-3.862 2.139,-3.547 L 0.732,-3.114 C 0.225,-2.916 0,-2.533 0,-2.027 Z"
           style="fill:#df222e;fill-opacity:1;fill-rule:nonzero;stroke:none"
           id="path980"
           inkscape:connector-curvature="0" />
      </g>
      <g
         id="g982"
         transform="matrix(0.35277777,0,0,-0.35277777,82.331815,55.655906)">
        <path
           d="m 0,0 v 0.057 c 0,0.619 -0.057,1.235 -0.113,1.851 l -0.45,4.818 -0.169,1.343 c -0.112,0.388 -0.338,0.602 -0.676,0.64 -0.281,-0.015 -0.506,0.03 -0.787,0.015 -1.07,0 -1.183,-0.118 -1.352,-1.197 L -4.448,2.582 c -0.225,-1.307 -0.45,-2.445 -0.619,-3.635 -0.225,-1.139 0.113,-1.402 1.239,-1.118 0.731,0.207 1.463,0.189 2.195,0.396 l 0.901,0.16 C -0.225,-1.532 0,-1.295 0,-0.788 Z m -5.461,14.577 c 1.407,0.242 2.815,0.373 4.223,0.615 0.168,0.009 0.281,0.072 0.45,0.08 1.182,0.006 2.364,-0.045 3.547,-0.208 0.619,-0.136 1.182,-0.107 1.801,-0.243 0.675,-0.134 1.07,-0.564 1.183,-1.29 0.394,-1.724 0.619,-3.401 0.9,-5.132 0.395,-2.288 0.676,-4.525 1.07,-6.756 0.225,-1.621 0.394,-3.245 0.563,-4.812 0.169,-1.287 0.113,-2.584 0.281,-3.87 0.226,-2.072 0.338,-4.149 0.394,-6.173 0.17,-1.736 -0.056,-3.493 -0.112,-5.241 0,-0.62 -0.338,-0.919 -0.957,-0.951 -1.07,-0.112 -2.139,-0.112 -3.209,0.001 l -2.534,0.317 -0.394,0.092 c -0.563,0.14 -0.845,0.519 -0.845,1.082 l -0.112,2.753 c -0.169,1.567 -0.225,3.141 -0.394,4.708 -0.056,0.278 0,0.507 0,0.789 -0.056,0.728 -0.394,1.048 -1.126,1.01 -0.619,-0.033 -1.07,-0.056 -1.689,-0.145 -0.957,-0.219 -1.971,-0.272 -2.928,-0.491 -0.619,-0.089 -0.732,-0.264 -0.9,-0.892 L -6.7,-12.906 c -0.225,-1.138 -0.281,-2.323 -0.506,-3.517 -0.282,-1.366 -0.451,-2.726 -0.62,-4.142 -0.169,-0.684 -0.394,-0.866 -1.126,-1.073 l -2.702,-0.648 c -0.169,-0.009 -0.225,-0.068 -0.394,-0.077 -1.07,-0.112 -1.971,-0.216 -3.04,-0.272 -0.62,-0.032 -0.901,0.235 -0.845,0.857 0.057,0.735 0.169,1.472 0.338,2.326 l 0.507,2.841 0.731,4.543 0.62,3.748 c 0.394,2.273 0.788,4.489 1.239,6.708 0.506,2.729 0.957,5.399 1.576,8.133 l 0.732,3.135 c 0.225,1.082 0.338,2.101 0.563,3.182 v 0.226 c 0.169,0.91 0.506,1.04 1.238,1.247 0.957,0.219 1.97,0.216 2.928,0.435 z"
           style="fill:#df222e;fill-opacity:1;fill-rule:nonzero;stroke:none"
           id="path984"
           inkscape:connector-curvature="0" />
      </g>
      <g
         id="g986"
         transform="matrix(0.35277777,0,0,-0.35277777,89.743781,56.247233)">
        <path
           d="M 0,0 C 0,-0.619 0.282,-0.83 0.844,-0.631 1.802,-0.356 2.703,0.029 3.66,0.361 6.193,1.394 7.263,4.322 7.094,6.227 6.812,8.858 4.842,9.656 3.097,9.508 2.365,9.414 1.633,9.319 0.901,9.112 0.057,8.898 -0.113,8.664 -0.113,7.82 -0.056,5.965 0,4.054 0,2.195 Z m -0.507,-7.852 c -0.168,-1.585 -0.225,-3.164 -0.225,-4.741 -0.056,-1.354 -0.112,-2.652 -0.281,-3.956 l -0.451,-3.57 c 0,-0.169 -0.056,-0.453 -0.112,-0.738 -0.169,-0.459 -0.507,-0.702 -0.957,-0.725 l -2.365,0.044 c -1.407,-0.017 -2.758,0.081 -4.11,-0.046 -0.732,-0.039 -1.126,0.335 -1.07,1.07 0,2.308 0.057,4.619 0.113,7.043 0,1.07 0.057,1.974 0.057,3.043 l 0.225,3.615 v 1.577 c 0.056,1.072 0.113,2.145 0.113,3.215 0.056,1.635 0.168,3.217 0.337,4.802 l 0.62,6.733 c 0.168,1.529 0.224,2.883 0.394,4.412 l 0.225,1.869 c 0.056,0.228 0.113,0.457 0.225,0.631 0.169,0.404 0.507,0.59 0.901,0.611 0.112,-0.05 0.281,-0.042 0.506,-0.03 1.07,-0.113 2.027,0.106 3.097,0.331 2.421,0.408 4.673,0.752 7.093,0.71 1.07,-10e-4 2.14,-0.226 3.21,-0.395 0.168,0.009 0.338,-0.095 0.506,-0.086 1.746,-0.247 3.265,-0.955 4.617,-2.179 1.407,-1.334 2.759,-2.67 3.434,-4.606 0.394,-0.879 0.451,-1.89 0.676,-2.779 0.113,-0.613 0.168,-1.23 0.168,-1.793 0,-0.619 -0.055,-1.298 -0.225,-1.926 C 16.102,3.152 15.82,2.068 15.37,1.031 14.751,-0.353 13.906,-1.467 12.836,-2.48 12.442,-2.894 11.992,-3.143 11.541,-3.561 l -0.45,-0.361 c -0.338,-0.356 -0.338,-0.694 -0.056,-1.017 0.844,-1.026 1.576,-2.113 2.421,-3.138 l 1.858,-2.492 c 1.07,-1.465 2.027,-2.822 2.871,-4.354 0.056,-0.11 0.169,-0.273 0.225,-0.495 0.169,-0.498 0.056,-0.842 -0.45,-0.981 -0.451,-0.193 -0.957,-0.163 -1.408,-0.243 -1.97,-0.272 -3.772,-0.366 -5.743,-0.863 -0.506,-0.139 -0.957,0.006 -1.351,0.435 -1.182,1.234 -2.364,2.467 -3.49,3.759 l -3.772,4.25 c -0.62,0.699 -1.239,1.342 -1.914,1.982 -0.169,0.161 -0.225,0.101 -0.395,0.261 -0.394,-0.415 -0.337,-0.637 -0.394,-1.034"
           style="fill:#df222e;fill-opacity:1;fill-rule:nonzero;stroke:none"
           id="path988"
           inkscape:connector-curvature="0" />
      </g>
      <g
         id="g990"
         transform="matrix(0.35277777,0,0,-0.35277777,76.249078,69.222469)">
        <path
           d="m 0,0 c -0.254,-0.718 -0.648,-1.331 -1.241,-1.814 l -0.338,-0.271 c -0.677,-0.346 -1.354,-0.55 -2.115,-0.506 l -0.254,0.044 c -0.536,0.112 -0.621,0.334 -0.621,0.757 0.028,0.452 -0.028,0.901 -0.028,1.38 0,0.254 0.085,0.484 0.423,0.586 0.31,0.073 0.592,0.144 0.79,0.239 0.31,0.101 0.507,0.252 0.62,0.455 0.113,0.091 0.141,0.234 0.226,0.351 0.113,0.344 0,0.507 -0.367,0.488 C -3.497,1.622 -4.089,1.563 -4.682,1.532 -5.048,1.484 -5.274,1.67 -5.33,2.033 -5.528,3.01 -5.612,3.937 -5.697,4.919 c 0,0.31 -0.028,0.534 -0.028,0.788 -0.028,0.281 0.113,0.458 0.395,0.529 0.423,0.106 0.761,0.209 1.184,0.231 0.79,0.126 1.551,0.138 2.341,0.179 0.564,0.001 1.128,-0.025 1.692,-0.08 C 0.198,6.554 0.395,6.395 0.451,6.087 0.536,5.612 0.536,5.161 0.621,4.63 0.649,4.293 0.649,3.926 0.649,3.588 0.733,2.351 0.423,1.15 0,0 m -13.763,3.171 c 0.085,0.653 0.056,1.357 0.141,2.066 0,0.254 0.141,0.402 0.395,0.416 l 0.31,0.016 c 0.31,-0.012 0.508,-0.002 0.818,0.015 0.677,0.007 1.354,0.014 2.031,0.05 0.253,0.013 0.507,-0.002 0.761,0.011 0.226,0.012 0.48,-0.003 0.733,0.011 C -8.32,5.741 -8.15,5.609 -8.094,5.358 -8.01,5.052 -7.953,4.716 -7.925,4.408 -7.784,3.597 -7.756,2.752 -7.84,1.93 -7.868,1.618 -7.897,1.363 -7.897,1.053 -7.981,0.4 -8.122,-0.144 -8.32,-0.718 c -0.141,-0.43 -0.395,-0.726 -0.705,-1.052 -0.536,-0.677 -1.156,-1.132 -2.03,-1.376 -0.452,-0.136 -0.903,-0.301 -1.354,-0.24 -0.169,-0.009 -0.31,0.012 -0.395,0.036 -0.282,0.042 -0.451,0.23 -0.479,0.539 -0.029,0.337 -0.029,0.703 -0.113,1.038 0,0.14 -0.029,0.252 -0.057,0.391 -0.028,0.309 0.113,0.486 0.423,0.587 l 0.649,0.118 c 0.649,0.119 1.072,0.508 1.438,1.006 0.085,0.089 0.085,0.23 0.113,0.344 0.057,0.314 -0.056,0.477 -0.338,0.462 -0.452,0.005 -0.903,-0.019 -1.354,-0.042 -0.254,-0.014 -0.48,-0.054 -0.733,0.017 -0.254,0.043 -0.395,0.205 -0.423,0.514 z"
           style="fill:#ef4136;fill-opacity:1;fill-rule:nonzero;stroke:none"
           id="path992"
           inkscape:connector-curvature="0" />
      </g>
    </g>
  </g>
</svg>
