<?xml version="1.0" encoding="UTF-8" standalone="no"?>
<svg
   xmlns:dc="http://purl.org/dc/elements/1.1/"
   xmlns:cc="http://creativecommons.org/ns#"
   xmlns:rdf="http://www.w3.org/1999/02/22-rdf-syntax-ns#"
   xmlns:svg="http://www.w3.org/2000/svg"
   xmlns="http://www.w3.org/2000/svg"
   id="svg5133"
   version="1.1"
   viewBox="0 0 113.6925 39.302357"
   height="39.302357mm"
   width="113.6925mm">
  <defs
     id="defs5127" />
  <metadata
     id="metadata5130">
    <rdf:RDF>
      <cc:Work
         rdf:about="">
        <dc:format>image/svg+xml</dc:format>
        <dc:type
           rdf:resource="http://purl.org/dc/dcmitype/StillImage" />
        <dc:title></dc:title>
      </cc:Work>
    </rdf:RDF>
  </metadata>
  <g
     transform="translate(-0.60613193,-0.1410865)"
     id="layer1">
    <g
       transform="translate(-128.5119,-140.75833)"
       id="g6348">
      <g
         id="g1302"
         transform="matrix(0.35277777,0,0,-0.35277777,133.50547,144.22466)">
        <path
           d="m 0,0 c 1.79,0.015 3.58,0.007 5.37,0.063 3.061,0.095 6.12,0.245 9.176,0.452 3.38,0.228 5.033,-0.129 4.775,3.609 -0.072,1.036 0.01,3.571 -1.068,4.267 C 17.748,8.718 13.955,8.105 13.323,8.068 10.582,7.908 7.84,7.782 5.097,7.688 3.337,7.628 1.578,7.612 -0.182,7.58 -0.096,5.053 -0.051,2.527 0,0"
           style="fill:#0083ff;fill-opacity:1;fill-rule:nonzero;stroke:none"
           id="path1304" />
      </g>
      <g
         id="g1306"
         transform="matrix(0.35277777,0,0,-0.35277777,129.1227,170.52195)">
        <path
           d="M 0,0 C 3.194,-0.178 6.367,-0.069 9.55,0.124 9.584,4.4 9.647,8.676 9.736,12.952 6.52,13.063 3.304,13.174 0.088,13.286 0.055,8.857 0.013,4.429 0,0"
           style="fill:#df222e;fill-opacity:1;fill-rule:nonzero;stroke:none"
           id="path1308" />
      </g>
      <g
         id="g1310"
         transform="matrix(0.35277777,0,0,-0.35277777,129.16183,144.16984)">
        <path
           d="M 0,0 C 3.528,-0.131 7.058,-0.18 10.587,-0.176 10.536,2.346 10.491,4.868 10.406,7.389 6.909,7.343 3.413,7.335 -0.084,7.386 -0.056,4.924 -0.028,2.462 0,0"
           style="fill:#0043ff;fill-opacity:1;fill-rule:nonzero;stroke:none"
           id="path1312" />
      </g>
      <g
         id="g1314"
         transform="matrix(0.35277777,0,0,-0.35277777,129.16878,144.77898)">
        <path
           d="m 0,0 c 0.04,-3.498 0.08,-6.996 0.12,-10.494 3.521,-0.012 7.041,0.022 10.56,0.082 0.004,3.419 -0.013,6.838 -0.072,10.257 C 7.073,-0.168 3.538,-0.13 0,0"
           style="fill:#0083ff;fill-opacity:1;fill-rule:nonzero;stroke:none"
           id="path1316" />
      </g>
      <g
         id="g1318"
         transform="matrix(0.35277777,0,0,-0.35277777,129.25814,152.58991)">
        <path
           d="m 0,0 c 0.066,-5.747 0.131,-11.494 0.197,-17.24 1.627,0.115 3.235,0.482 4.864,0.621 1.545,0.131 3.099,0.192 4.65,0.263 0.281,5.451 0.456,10.905 0.577,16.359 C 6.861,-0.055 3.433,-0.067 0,0"
           style="fill:#0083ff;fill-opacity:1;fill-rule:nonzero;stroke:none"
           id="path1320" />
      </g>
      <g
         id="g1322"
         transform="matrix(0.35277777,0,0,-0.35277777,149.84215,171.95014)">
        <path
           d="m 0,0 c 1.681,0.104 3.364,0.193 5.049,0.251 2.496,0.085 4.993,0.121 7.49,0.11 3.204,-0.014 4.544,0.996 4.394,4.302 C 16.787,7.896 14.162,6.852 11.318,6.87 8.82,6.886 6.323,6.895 3.826,6.898 2.492,6.899 1.158,6.883 -0.176,6.88 -0.147,5.444 -0.145,4.007 -0.104,2.57 -0.079,1.717 -0.041,0.859 0,0"
           style="fill:#df222e;fill-opacity:1;fill-rule:nonzero;stroke:none"
           id="path1324" />
      </g>
      <g
         id="g1326"
         transform="matrix(0.35277777,0,0,-0.35277777,129.25115,151.98041)">
        <path
           d="M 0,0 C 3.46,-0.066 6.9,-0.05 10.342,0.011 10.395,2.763 10.438,5.515 10.45,8.267 6.936,8.211 3.422,8.181 -0.094,8.194 -0.062,5.462 -0.031,2.731 0,0"
           style="fill:#0043ff;fill-opacity:1;fill-rule:nonzero;stroke:none"
           id="path1328" />
      </g>
      <g
         id="g1330"
         transform="matrix(0.35277777,0,0,-0.35277777,147.80659,143.91507)">
        <path
           d="m 0,0 c 2.041,0.027 4.083,0.055 6.124,0.082 2.849,0.039 5.697,0.077 8.545,0.115 1.256,0.017 3.146,-0.373 4.273,0.058 1.575,0.602 1.932,2.188 1.822,3.973 C 20.497,8.545 16.92,7.635 13.391,7.699 10.586,7.75 7.782,7.801 4.977,7.852 3.184,7.884 1.391,7.917 -0.402,7.949 -0.25,5.3 -0.128,2.65 0,0"
           style="fill:#0083ff;fill-opacity:1;fill-rule:nonzero;stroke:none"
           id="path1332" />
      </g>
      <g
         id="g1334"
         transform="matrix(0.35277777,0,0,-0.35277777,139.60853,173.1052)">
        <path
           d="m 0,0 c -0.982,-0.607 -2.003,-1.145 -3.051,-1.591 -2.282,-0.97 -4.603,-1.539 -6.948,-1.889 1.801,-3.661 3.514,-7.363 5.074,-11.134 1.372,-3.319 2.752,-4.692 6.507,-4.838 2.122,-0.082 4.23,0.014 6.34,0.179 C 5.281,-12.849 2.641,-6.424 0,0"
           style="fill:#df222e;fill-opacity:1;fill-rule:nonzero;stroke:none"
           id="path1336" />
      </g>
      <g
         id="g1338"
         transform="matrix(0.35277777,0,0,-0.35277777,145.77286,172.31396)">
        <path
           d="M 0,0 C 3.265,0.38 6.537,0.683 9.814,0.914 9.77,1.813 9.731,2.709 9.705,3.602 9.664,5.036 9.662,6.47 9.633,7.904 6.398,7.895 3.164,7.892 -0.071,7.862 -0.044,5.242 -0.017,2.621 0,0"
           style="fill:#c30508;fill-opacity:1;fill-rule:nonzero;stroke:none"
           id="path1340" />
      </g>
      <g
         id="g1342"
         transform="matrix(0.35277777,0,0,-0.35277777,132.48337,171.16507)">
        <path
           d="m 0,0 c -3.219,-0.133 -6.431,-0.104 -9.538,0.095 -0.007,-2.935 0.012,-5.871 0.014,-8.806 3.151,0.538 6.336,0.629 9.525,0.686 C -0.005,-5.35 -0.016,-2.675 0,0"
           style="fill:#c30508;fill-opacity:1;fill-rule:nonzero;stroke:none"
           id="path1344" />
      </g>
      <g
         id="g1346"
         transform="matrix(0.35277777,0,0,-0.35277777,149.14637,162.71911)">
        <path
           d="m 0,0 c -3.319,-0.076 -6.639,-0.132 -9.958,-0.234 0.061,-2.431 0.105,-4.863 0.151,-7.294 3.255,0.117 6.511,0.207 9.767,0.275 C -0.035,-4.836 -0.035,-2.418 0,0"
           style="fill:#c30508;fill-opacity:1;fill-rule:nonzero;stroke:none"
           id="path1348" />
      </g>
      <g
         id="g1350"
         transform="matrix(0.35277777,0,0,-0.35277777,145.79329,176.83819)">
        <path
           d="M 0,0 C 3.466,0.083 6.933,0.166 10.399,0.249 10.351,4.162 10.067,8.097 9.848,11.998 6.545,11.769 3.244,11.482 -0.048,11.099 -0.027,7.4 -0.009,3.7 0,0"
           style="fill:#df222e;fill-opacity:1;fill-rule:nonzero;stroke:none"
           id="path1352" />
      </g>
      <g
         id="g1354"
         transform="matrix(0.35277777,0,0,-0.35277777,129.17463,162.71742)">
        <path
           d="m 0,0 c -0.025,-2.37 -0.028,-4.741 -0.047,-7.111 3.226,-0.112 6.452,-0.224 9.678,-0.336 0.06,2.658 0.114,5.316 0.195,7.974 C 6.535,0.491 3.249,0.303 0,0"
           style="fill:#c30508;fill-opacity:1;fill-rule:nonzero;stroke:none"
           id="path1356" />
      </g>
      <g
         id="g1358"
         transform="matrix(0.35277777,0,0,-0.35277777,135.75666,173.78762)">
        <path
           d="m 0,0 c 0.505,0.076 1.011,0.138 1.515,0.238 7.358,1.468 15.18,5.99 16.374,14.076 0.513,3.479 -0.348,7.423 -2.085,10.501 -2.233,3.958 -5.982,5.406 -10.208,6.096 -4.179,0.682 -8.438,0.981 -12.701,1.007 -0.081,-2.681 -0.137,-5.363 -0.197,-8.044 0.389,-0.014 0.778,-0.027 1.168,-0.041 3.119,-0.108 6.519,0.102 9.508,-0.968 3.3,-1.183 5.817,-4.774 5.28,-8.403 C 8.073,10.529 3.906,8.699 0.411,8.251 -2.169,7.92 -4.853,7.695 -7.551,7.539 -7.568,4.842 -7.557,2.144 -7.552,-0.554 c 2.222,0.048 4.441,0.136 6.647,0.412 C -0.645,0.075 -0.294,0.152 0,0"
           style="fill:#df222e;fill-opacity:1;fill-rule:nonzero;stroke:none"
           id="path1360" />
      </g>
      <g
         id="g1362"
         transform="matrix(0.35277777,0,0,-0.35277777,129.136,179.99294)">
        <path
           d="M 0,0 C 3.217,0.07 6.431,0.21 9.643,0.411 9.55,5.408 9.507,10.405 9.49,15.401 6.307,15.314 3.121,15.174 -0.032,14.583 -0.026,9.722 -0.03,4.861 0,0"
           style="fill:#df222e;fill-opacity:1;fill-rule:nonzero;stroke:none"
           id="path1364" />
      </g>
      <g
         id="g1366"
         transform="matrix(0.35277777,0,0,-0.35277777,133.50893,151.96337)">
        <path
           d="m 0,0 c 1.14,0.027 2.275,0.034 3.42,0.073 2.588,0.088 5.174,0.209 7.758,0.382 3.076,0.207 4.942,-0.364 5.581,2.872 0.1,0.51 0.637,4.428 0.373,4.847 C 16.411,9.32 14.967,8.756 13.84,8.701 10.985,8.564 8.13,8.451 5.274,8.363 3.552,8.311 1.829,8.288 0.107,8.255 0.095,5.503 0.052,2.752 0,0"
           style="fill:#0083ff;fill-opacity:1;fill-rule:nonzero;stroke:none"
           id="path1368" />
      </g>
      <g
         id="g1370"
         transform="matrix(0.35277777,0,0,-0.35277777,208.63543,158.56688)">
        <path
           d="M 0,0 C 0.084,0.047 0.184,0.071 0.298,0.08 6.02,16.738 11.739,33.398 17.391,50.081 16.834,48.829 12.562,49.171 11.422,49.122 9.487,49.038 7.551,48.987 5.614,48.948 1.919,38.132 -1.635,27.27 -5.144,16.392 -3.769,10.843 -2.366,5.307 -0.213,-0.007 -0.142,-0.004 -0.071,-0.002 0,0"
           style="fill:#0083ff;fill-opacity:1;fill-rule:nonzero;stroke:none"
           id="path1372" />
      </g>
      <g
         id="g1374"
         transform="matrix(0.35277777,0,0,-0.35277777,206.46701,153.87776)">
        <path
           d="m 0,0 c -1.349,-4.193 -2.693,-8.388 -4.035,-12.583 0.208,-0.433 0.408,-0.869 0.623,-1.299 1.659,0.087 3.337,0.395 5.017,0.447 0.836,0.027 1.672,0.053 2.508,0.079 C 2.387,-9.01 1.142,-4.522 0,0"
           style="fill:#0043ff;fill-opacity:1;fill-rule:nonzero;stroke:none"
           id="path1376" />
      </g>
      <g
         id="g1378"
         transform="matrix(0.35277777,0,0,-0.35277777,204.66452,157.50558)">
        <path
           d="m 0,0 c 1.435,4.483 2.874,8.964 4.319,13.444 -0.574,2.317 -1.15,4.633 -1.781,6.935 -2.259,8.237 -4.967,16.339 -7.704,24.427 -2.205,0.205 -4.409,0.41 -6.613,0.615 -1.219,0.114 -2.439,0.227 -3.658,0.341 -0.228,0.021 -1.083,0.153 -1.629,0.206 C -10.071,31.132 -6.72,14.918 0,0"
           style="fill:#0083ff;fill-opacity:1;fill-rule:nonzero;stroke:none"
           id="path1380" />
      </g>
      <g
         id="g1382"
         transform="matrix(0.35277777,0,0,-0.35277777,191.62628,149.79767)">
        <path
           d="m 0,0 c 0.1,-8.323 0.379,-16.647 0.585,-24.968 3.725,-0.022 7.449,0.002 11.174,0.071 0.579,16.428 0.723,32.863 0.439,49.298 -3.737,0.093 -7.47,0.257 -11.2,0.491 C 1.516,16.576 -0.1,8.322 0,0"
           style="fill:#0083ff;fill-opacity:1;fill-rule:nonzero;stroke:none"
           id="path1384" />
      </g>
      <g
         id="g1386"
         transform="matrix(0.35277777,0,0,-0.35277777,215.7493,158.9156)">
        <path
           d="M 0,0 C -0.245,-0.186 -0.152,-0.536 0,0"
           style="fill:#0083ff;fill-opacity:1;fill-rule:nonzero;stroke:none"
           id="path1388" />
      </g>
      <g
         id="g1390"
         transform="matrix(0.35277777,0,0,-0.35277777,215.00229,150.00309)">
        <path
           d="m 0,0 c -3.011,-8.198 -6.321,-16.292 -9.208,-24.532 2.481,-0.137 4.963,-0.273 7.444,-0.409 1.297,-0.072 2.608,-0.196 3.909,-0.218 0.026,0.108 0.053,0.232 0.08,0.399 0.453,2.841 2.08,5.895 3.026,8.607 1.364,3.91 2.718,7.825 4.04,11.75 1.552,4.606 2.857,9.274 4.224,13.925 C 12.139,14.264 10.601,18.948 8.6,23.473 6.193,15.539 2.849,7.758 0,0"
           style="fill:#0083ff;fill-opacity:1;fill-rule:nonzero;stroke:none"
           id="path1392" />
      </g>
      <g
         id="g1394"
         transform="matrix(0.35277777,0,0,-0.35277777,179.45037,141.05771)">
        <path
           d="m 0,0 c -4.504,-0.007 -9.007,-0.005 -13.511,-0.021 0.02,-2.791 0.041,-5.583 0.061,-8.374 4.405,0.763 8.833,1.003 13.27,1.025 0.006,2.456 0.053,4.912 0.18,7.37"
           style="fill:#0083ff;fill-opacity:1;fill-rule:nonzero;stroke:none"
           id="path1396" />
      </g>
      <g
         id="g1398"
         transform="matrix(0.35277777,0,0,-0.35277777,143.2045,147.81502)">
        <path
           d="M 0,0 C 3.924,0.072 7.847,0.143 11.771,0.215 11.663,3.246 11.547,6.277 11.407,9.307 7.777,9.258 4.147,9.209 0.517,9.16 0.335,6.109 0.158,3.055 0,0"
           style="fill:#0083ff;fill-opacity:1;fill-rule:nonzero;stroke:none"
           id="path1400" />
      </g>
      <g
         id="g1402"
         transform="matrix(0.35277777,0,0,-0.35277777,220.10589,145.52962)">
        <path
           d="m 0,0 c 0.379,1.245 0.755,2.49 1.16,3.728 0.725,2.213 1.467,4.426 2.292,6.603 0.687,1.812 1.33,2.168 -0.91,2.386 C 0.213,12.944 -2.273,12.611 -4.635,12.258 -2.822,8.277 -1.333,4.169 0,0"
           style="fill:#0043ff;fill-opacity:1;fill-rule:nonzero;stroke:none"
           id="path1404" />
      </g>
      <g
         id="g1406"
         transform="matrix(0.35277777,0,0,-0.35277777,222.03185,142.02876)">
        <path
           d="m 0,0 c -0.565,-1.383 -1.324,-2.771 -1.595,-3.557 -1.065,-3.089 -2.027,-6.209 -2.919,-9.35 2.632,-8.695 4.789,-17.578 8.014,-26.053 0.949,-2.496 1.8,-5.033 2.656,-7.563 0.085,-0.254 0.318,-0.721 0.439,-1.066 0.334,-0.009 0.757,-0.055 0.965,-0.038 3.179,0.255 6.434,0.131 9.641,0.126 C 11.467,-31.667 5.734,-15.834 0,0"
           style="fill:#0083ff;fill-opacity:1;fill-rule:nonzero;stroke:none"
           id="path1408" />
      </g>
      <g
         id="g1410"
         transform="matrix(0.35277777,0,0,-0.35277777,149.79795,158.68016)">
        <path
           d="m 0,0 c 3.086,0.047 6.171,0.123 9.255,0.23 0.8,0.027 4.39,-0.234 5.046,0.2 1.223,0.809 0.826,2.179 0.829,3.447 0.004,2.063 0.382,2.817 -1.689,3.208 C 12.148,7.33 10.512,6.93 9.17,6.876 5.752,6.737 2.331,6.662 -1.09,6.627 -2.283,6.615 -3.477,6.627 -4.67,6.624 -4.654,4.409 -4.627,2.194 -4.628,-0.022 -3.085,-0.014 -1.543,-0.023 0,0"
           style="fill:#0083ff;fill-opacity:1;fill-rule:nonzero;stroke:none"
           id="path1412" />
      </g>
      <g
         id="g1414"
         transform="matrix(0.35277777,0,0,-0.35277777,143.04776,155.70536)">
        <path
           d="M 0,0 C 4.243,-0.05 8.485,-0.077 12.727,-0.074 12.691,3.777 12.627,7.628 12.54,11.478 8.357,11.204 4.175,10.931 -0.008,10.657 -0.088,7.103 -0.082,3.55 0,0"
           style="fill:#0083ff;fill-opacity:1;fill-rule:nonzero;stroke:none"
           id="path1416" />
      </g>
      <g
         id="g1418"
         transform="matrix(0.35277777,0,0,-0.35277777,147.45875,151.04809)">
        <path
           d="M 0,0 C -0.063,2.552 -0.141,5.103 -0.226,7.655 -4.198,7.582 -8.169,7.509 -12.14,7.437 -12.274,4.686 -12.382,1.936 -12.459,-0.815 -8.306,-0.543 -4.153,-0.272 0,0"
           style="fill:#0043ff;fill-opacity:1;fill-rule:nonzero;stroke:none"
           id="path1420" />
      </g>
      <g
         id="g1422"
         transform="matrix(0.35277777,0,0,-0.35277777,149.06181,150.94325)">
        <path
           d="m 0,0 c 2.763,0.181 5.526,0.361 8.288,0.542 3.348,0.219 6.047,0.145 6.053,4.17 0.002,1.4 0.251,2.273 -1.064,2.975 C 12.539,8.081 9.087,7.611 8.236,7.595 5.435,7.544 2.634,7.493 -0.166,7.441 -1.126,7.424 -2.086,7.406 -3.046,7.389 -2.961,4.865 -2.883,2.34 -2.82,-0.184 -1.88,-0.123 -0.94,-0.062 0,0"
           style="fill:#0083ff;fill-opacity:1;fill-rule:nonzero;stroke:none"
           id="path1424" />
      </g>
      <g
         id="g1426"
         transform="matrix(0.35277777,0,0,-0.35277777,184.31479,143.74443)">
        <path
           d="m 0,0 c 4.575,-0.067 9.146,0.008 13.701,0.563 0.255,1.641 0.718,4.2 0.112,5.353 C 12.589,8.242 9.75,7.548 7.682,7.567 5.279,7.589 2.876,7.596 0.472,7.607 0.329,5.078 0.168,2.541 0,0"
           style="fill:#0083ff;fill-opacity:1;fill-rule:nonzero;stroke:none"
           id="path1428" />
      </g>
      <g
         id="g1430"
         transform="matrix(0.35277777,0,0,-0.35277777,179.9933,144.25327)">
        <path
           d="m 0,0 c 0.045,-7.001 0.457,-13.996 0.797,-20.998 0.246,-5.073 0.439,-10.151 0.371,-15.23 -0.043,-3.236 -0.448,-4.304 2.954,-4.451 1.965,-0.085 3.93,-0.097 5.896,-0.082 -1.417,13.415 -0.502,27.033 0.395,40.532 C 6.941,-0.148 3.468,-0.021 0,0"
           style="fill:#0083ff;fill-opacity:1;fill-rule:nonzero;stroke:none"
           id="path1432" />
      </g>
      <g
         id="g1434"
         transform="matrix(0.35277777,0,0,-0.35277777,179.98934,143.65652)">
        <path
           d="m 0,0 c 3.509,-0.022 7.024,-0.148 10.537,-0.221 0.167,2.534 0.329,5.065 0.471,7.588 C 10.114,7.37 9.22,7.38 8.326,7.382 5.615,7.388 2.905,7.372 0.195,7.369 0.067,4.911 0.007,2.455 0,0"
           style="fill:#0043ff;fill-opacity:1;fill-rule:nonzero;stroke:none"
           id="path1436" />
      </g>
      <g
         id="g1438"
         transform="matrix(0.35277777,0,0,-0.35277777,147.05524,141.09965)">
        <path
           d="m 0,0 c -3.272,0.059 -6.545,0.119 -9.817,0.178 -0.149,-2.772 -0.312,-5.548 -0.478,-8.326 3.566,0.048 7.133,0.096 10.7,0.144 C 0.276,-5.336 0.154,-2.667 0,0"
           style="fill:#0043ff;fill-opacity:1;fill-rule:nonzero;stroke:none"
           id="path1440" />
      </g>
      <g
         id="g1442"
         transform="matrix(0.35277777,0,0,-0.35277777,147.54141,156.34396)">
        <path
           d="m 0,0 c -4.234,0.002 -8.469,0.033 -12.702,0.083 0.07,-2.208 0.18,-4.415 0.337,-6.62 C -8.23,-6.629 -4.094,-6.659 0.042,-6.653 0.044,-4.435 0.016,-2.217 0,0"
           style="fill:#0043ff;fill-opacity:1;fill-rule:nonzero;stroke:none"
           id="path1444" />
      </g>
      <g
         id="g1446"
         transform="matrix(0.35277777,0,0,-0.35277777,215.91306,162.59186)">
        <path
           d="m 0,0 c 1.27,-4.62 2.534,-9.207 4.249,-13.676 0.139,0.435 0.291,0.867 0.423,1.304 1.301,4.294 2.042,8.698 3.61,12.893 C 5.521,0.348 2.761,0.174 0,0"
           style="fill:#c30508;fill-opacity:1;fill-rule:nonzero;stroke:none"
           id="path1448" />
      </g>
      <g
         id="g1450"
         transform="matrix(0.35277777,0,0,-0.35277777,242.64571,162.49647)">
        <path
           d="m 0,0 c -3.283,-0.004 -6.565,-0.077 -9.845,-0.22 -0.083,-10.416 -0.166,-20.833 -0.249,-31.249 3.265,-5.576 6.531,-11.152 9.797,-16.727 C 1.325,-32.151 -1.46,-16.058 0,0"
           style="fill:#df222e;fill-opacity:1;fill-rule:nonzero;stroke:none"
           id="path1452" />
      </g>
      <g
         id="g1454"
         transform="matrix(0.35277777,0,0,-0.35277777,209.72819,163.12336)">
        <path
           d="M 0,0 C 0.03,1.987 -0.402,1.527 -1.869,1.782 -4.106,2.17 -6.986,1.631 -9.302,1.446 c -2.45,-8.31 -4.413,-16.717 -6.419,-25.111 1.547,-7.152 3.136,-14.253 5.143,-21.289 2.49,9.095 4.834,18.21 6.291,27.54 0.745,4.772 1.923,9.202 3.322,13.815 C -0.634,-2.504 -0.017,-1.165 0,0"
           style="fill:#df222e;fill-opacity:1;fill-rule:nonzero;stroke:none"
           id="path1456" />
      </g>
      <g
         id="g1458"
         transform="matrix(0.35277777,0,0,-0.35277777,225.13414,180.12495)">
        <path
           d="m 0,0 c 0.354,0.071 0.708,0.141 1.063,0.212 -1.544,4.08 -2.588,8.311 -4.24,12.371 -1.67,4.106 -3.309,8.225 -4.933,12.35 -3.089,7.844 -6.027,15.741 -8.474,23.81 -1.351,-3.876 -2.025,-7.938 -3.217,-11.874 -0.345,-1.136 -0.719,-2.263 -1.106,-3.386 1.73,-4.202 3.122,-8.346 4.117,-12.814 1.137,-5.112 2.662,-10.044 4.539,-14.933 1.289,-3.357 1.778,-5.31 5.715,-5.824 2.028,-0.265 4.28,-0.059 6.41,0.046 C -0.082,-0.03 -0.048,-0.006 0,0"
           style="fill:#df222e;fill-opacity:1;fill-rule:nonzero;stroke:none"
           id="path1460" />
      </g>
      <g
         id="g1462"
         transform="matrix(0.35277777,0,0,-0.35277777,215.37369,162.92616)">
        <path
           d="m 0,0 c -5.497,-16.219 -11.086,-32.41 -17.774,-48.184 2.428,0.024 4.856,0.042 7.284,0.031 4.016,-0.019 4.125,2.203 5.372,5.583 1.922,5.208 3.843,10.417 5.765,15.626 1.427,3.866 2.947,7.719 4.289,11.624 C 2.841,-10.339 1.429,-5.192 0,0"
           style="fill:#df222e;fill-opacity:1;fill-rule:nonzero;stroke:none"
           id="path1464" />
      </g>
      <g
         id="g1466"
         transform="matrix(0.35277777,0,0,-0.35277777,196.95968,179.42049)">
        <path
           d="m 0,0 c -1.696,5.849 -3.076,11.718 -4.385,17.655 -1.569,-6.292 -3.104,-12.71 -5.51,-18.678 0.034,0.006 0.055,0.005 0.091,0.012 1.381,0.255 2.981,0.101 4.382,0.149 l 5.229,0.178 C -0.13,-0.456 -0.064,-0.228 0,0"
           style="fill:#c30508;fill-opacity:1;fill-rule:nonzero;stroke:none"
           id="path1468" />
      </g>
      <g
         id="g1470"
         transform="matrix(0.35277777,0,0,-0.35277777,195.82074,171.59683)">
        <path
           d="M 0,0 C -0.072,-0.27 -0.14,-0.545 -0.211,-0.817 1.11,-6.913 2.487,-12.97 4.131,-18.982 6.087,-12.098 8.098,-5.215 9.812,1.727 8.359,8.524 6.954,15.329 5.735,22.163 3.866,14.764 1.964,7.374 0,0"
           style="fill:#df222e;fill-opacity:1;fill-rule:nonzero;stroke:none"
           id="path1472" />
      </g>
      <g
         id="g1474"
         transform="matrix(0.35277777,0,0,-0.35277777,203.85677,172.82115)">
        <path
           d="m 0,0 c -1.604,-6.617 -3.299,-13.213 -5.338,-19.737 0.053,0.008 0.091,0.008 0.15,0.019 1.381,0.255 2.981,0.101 4.382,0.149 1.87,0.064 3.741,0.128 5.612,0.191 C 2.916,-12.961 1.431,-6.523 0,0"
           style="fill:#c30508;fill-opacity:1;fill-rule:nonzero;stroke:none"
           id="path1476" />
      </g>
      <g
         id="g1478"
         transform="matrix(0.35277777,0,0,-0.35277777,201.55916,179.04662)">
        <path
           d="M 0,0 C 2.157,7.111 3.945,14.301 5.669,21.506 4.485,26.939 3.298,32.371 2.158,37.813 1.727,39.875 1.175,41.975 0.821,44.053 -1.945,37.303 -2.871,30.316 -4.586,23.237 -3.774,19.522 -2.973,15.803 -2.237,12.07 -1.584,8.752 -0.941,5.433 -0.305,2.112 -0.181,1.468 -0.099,0.735 0,0"
           style="fill:#df222e;fill-opacity:1;fill-rule:nonzero;stroke:none"
           id="path1480" />
      </g>
      <g
         id="g1482"
         transform="matrix(0.35277777,0,0,-0.35277777,238.47436,173.76126)">
        <path
           d="m 0,0 c -5.719,9.765 -11.439,19.53 -17.158,29.295 -0.304,-4.903 -0.257,-9.81 -0.108,-14.717 C -11.553,4.489 -5.839,-5.601 -0.125,-15.69 -0.083,-10.46 -0.042,-5.23 0,0"
           style="fill:#df222e;fill-opacity:1;fill-rule:nonzero;stroke:none"
           id="path1484" />
      </g>
      <g
         id="g1486"
         transform="matrix(0.35277777,0,0,-0.35277777,235.72114,156.21886)">
        <path
           d="m 0,0 c -0.058,-2.492 -0.097,-4.985 -0.197,-7.477 2.784,-0.026 5.57,-0.017 8.356,0.059 1.978,0.054 3.955,0.131 5.931,0.235 1.146,0.06 4.324,-0.317 5.078,0.321 1.413,1.196 0.857,4.722 0.612,6.989 C 13.187,0.084 6.593,0.042 0,0"
           style="fill:#0083ff;fill-opacity:1;fill-rule:nonzero;stroke:none"
           id="path1488" />
      </g>
      <g
         id="g1490"
         transform="matrix(0.35277777,0,0,-0.35277777,145.6992,165.98343)">
        <path
           d="m 0,0 c 0.048,-2.785 0.085,-5.571 0.117,-8.356 3.232,0.029 6.464,0.033 9.696,0.042 C 9.765,-5.455 9.725,-2.596 9.722,0.263 6.481,0.199 3.241,0.116 0,0"
           style="fill:#df222e;fill-opacity:1;fill-rule:nonzero;stroke:none"
           id="path1492" />
      </g>
      <g
         id="g1494"
         transform="matrix(0.35277777,0,0,-0.35277777,239.07514,174.78704)">
        <path
           d="m 0,0 c -0.04,-4.943 -0.079,-9.885 -0.118,-14.827 2.892,-0.057 5.776,0.039 8.659,0.245 C 5.694,-9.722 2.847,-4.861 0,0"
           style="fill:#c30508;fill-opacity:1;fill-rule:nonzero;stroke:none"
           id="path1496" />
      </g>
      <g
         id="g1498"
         transform="matrix(0.35277777,0,0,-0.35277777,231.36063,155.63784)">
        <path
           d="m 0,0 10.711,0.069 c 0.145,7.169 0.13,14.34 -0.088,21.51 C 10.46,26.923 10.197,32.265 9.831,37.599 9.61,40.828 9.863,41.738 6.242,41.345 4.088,41.112 1.934,40.878 -0.22,40.645 -0.433,27.095 -0.353,13.545 0,0"
           style="fill:#0083ff;fill-opacity:1;fill-rule:nonzero;stroke:none"
           id="path1500" />
      </g>
      <g
         id="g1502"
         transform="matrix(0.35277777,0,0,-0.35277777,193.05496,179.19401)">
        <path
           d="m 0,0 c 2.567,6.627 4.132,13.816 5.867,20.732 -0.031,0.139 -0.061,0.277 -0.092,0.416 -1.24,5.691 -2.483,11.382 -3.677,17.083 -0.465,2.221 -1.079,4.488 -1.425,6.721 -0.06,0.394 -0.206,1.075 -0.464,1.472 -0.118,0.014 -0.235,0.028 -0.411,0.053 -0.79,0.061 -1.58,0.119 -2.371,0.174 -2.285,0.163 -4.572,0.304 -6.859,0.44 1.989,-11.617 4.856,-23.04 7.134,-34.604 C -1.644,9.17 -1.001,5.851 -0.365,2.53 -0.218,1.763 -0.13,0.874 0,0"
           style="fill:#df222e;fill-opacity:1;fill-rule:nonzero;stroke:none"
           id="path1504" />
      </g>
      <g
         id="g1506"
         transform="matrix(0.35277777,0,0,-0.35277777,231.7466,167.49445)">
        <path
           d="M 0,0 C -0.088,4.643 -0.033,9.284 0.369,13.923 -2.387,13.932 -5.144,13.941 -7.9,13.95 -5.267,9.3 -2.633,4.65 0,0"
           style="fill:#c30508;fill-opacity:1;fill-rule:nonzero;stroke:none"
           id="path1508" />
      </g>
      <g
         id="g1510"
         transform="matrix(0.35277777,0,0,-0.35277777,228.27626,179.81468)">
        <path
           d="M 0,0 C 3.297,-0.06 6.584,0.044 9.87,0.325 10.997,10.623 10.256,20.941 9.929,31.258 6.747,36.877 3.566,42.495 0.384,48.113 0.256,32.075 0.128,16.038 0,0"
           style="fill:#df222e;fill-opacity:1;fill-rule:nonzero;stroke:none"
           id="path1512" />
      </g>
      <g
         id="g1514"
         transform="matrix(0.35277777,0,0,-0.35277777,235.12949,156.22264)">
        <path
           d="m 0,0 c -3.544,-0.023 -7.088,-0.045 -10.633,-0.068 0.065,-2.337 0.125,-4.674 0.207,-7.011 3.393,-0.189 6.788,-0.318 10.183,-0.374 C -0.143,-4.969 -0.06,-2.485 0,0"
           style="fill:#0043ff;fill-opacity:1;fill-rule:nonzero;stroke:none"
           id="path1516" />
      </g>
      <g
         id="g1518"
         transform="matrix(0.35277777,0,0,-0.35277777,171.85171,145.82056)">
        <path
           d="m 0,0 c -3.484,9.253 -13.471,13.685 -22.951,12.75 -6.006,-0.592 -11.298,-3.524 -13.41,-9.403 -1.633,-4.547 -1.863,-8.945 1.805,-12.438 6.125,-5.833 15.136,-6.939 21.469,-12.271 1.59,-1.339 4.053,-3.587 3.329,-5.966 -1.01,-3.318 -6.938,-3.487 -9.576,-3.458 -4.625,0.05 -9.149,2.555 -9.073,7.378 -3.394,-0.12 -6.789,-0.24 -10.183,-0.36 1.242,-4.442 3.866,-9.959 7.839,-12.148 4.638,-2.555 10.981,-2.421 16.077,-1.904 6.23,0.633 10.625,2.7 12.779,8.926 1.968,5.686 1.011,9.571 -3.31,13.71 -4.153,3.979 -9.017,6.339 -14.29,8.525 -2.656,1.101 -6.232,1.648 -6.978,4.87 -2.023,8.738 14.242,8.992 16.091,0.764 C -6.943,-0.373 -3.432,-0.662 0,0"
           style="fill:#0083ff;fill-opacity:1;fill-rule:nonzero;stroke:none"
           id="path1520" />
      </g>
      <g
         id="g1522"
         transform="matrix(0.35277777,0,0,-0.35277777,156.98291,177.17979)">
        <path
           d="m 0,0 c -0.741,0.486 -3.341,-0.08 -4.185,-0.1 -3.068,-0.073 -6.137,-0.147 -9.206,-0.22 -2.064,-0.049 -4.128,-0.099 -6.192,-0.148 -0.017,-2.142 -0.118,-4.275 -0.369,-6.388 -0.003,-0.019 -0.013,-0.032 -0.017,-0.05 1.884,-0.037 3.768,-0.088 5.656,-0.148 3.29,-0.106 6.582,-0.212 9.873,-0.147 1.247,0.024 2.956,-0.243 4.103,0.175 1.725,0.63 1.308,1.095 1.415,2.777 C 1.168,-2.842 1.278,-0.838 0,0"
           style="fill:#df222e;fill-opacity:1;fill-rule:nonzero;stroke:none"
           id="path1524" />
      </g>
      <g
         id="g1526"
         transform="matrix(0.35277777,0,0,-0.35277777,149.33521,179.59836)">
        <path
           d="M 0,0 C 0.25,2.098 0.351,4.218 0.369,6.347 -3.099,6.264 -6.568,6.181 -10.036,6.098 c 0.004,-2.137 0.01,-4.274 0.013,-6.411 3.344,0.267 6.683,0.324 10.025,0.286 C 0.003,-0.017 -0.001,-0.01 0,0"
           style="fill:#c30508;fill-opacity:1;fill-rule:nonzero;stroke:none"
           id="path1528" />
      </g>
      <g
         id="g1530"
         transform="matrix(0.35277777,0,0,-0.35277777,149.74129,165.26937)">
        <path
           d="m 0,0 c 2.238,0.04 4.476,0.082 6.715,0.095 3.375,0.019 6.75,0.008 10.125,-0.032 3.854,-0.045 4.027,-0.115 4.049,3.705 0.007,1.337 0.535,2.908 -0.64,3.781 C 19.564,8.058 16.814,7.533 16.006,7.528 12.895,7.507 9.784,7.473 6.672,7.426 4.461,7.392 2.251,7.317 0.04,7.27 0.005,4.846 0.005,2.423 0,0"
           style="fill:#df222e;fill-opacity:1;fill-rule:nonzero;stroke:none"
           id="path1532" />
      </g>
      <g
         id="g1534"
         transform="matrix(0.35277777,0,0,-0.35277777,160.49954,176.99451)">
        <path
           d="M 0,0 C 3.31,0.093 6.621,0.186 9.932,0.279 9.831,7.257 9.712,14.234 9.549,21.211 9.43,26.329 9.293,31.448 9.14,36.565 9.046,39.695 8.231,40.778 5.042,40.851 2.807,40.902 0.573,40.867 -1.661,40.796 -0.441,27.225 0.091,13.619 0,0"
           style="fill:#df222e;fill-opacity:1;fill-rule:nonzero;stroke:none"
           id="path1536" />
      </g>
      <g
         id="g1538"
         transform="matrix(0.35277777,0,0,-0.35277777,164.01158,177.50473)">
        <path
           d="M 0,0 C -3.325,-0.093 -6.65,-0.187 -9.975,-0.28 -9.996,-2.213 -9.992,-4.146 -10.04,-6.079 -6.666,-6.373 -3.288,-6.589 0.093,-6.753 0.068,-4.502 0.031,-2.251 0,0"
           style="fill:#c30508;fill-opacity:1;fill-rule:nonzero;stroke:none"
           id="path1540" />
      </g>
      <g
         id="g1542"
         transform="matrix(0.35277777,0,0,-0.35277777,199.63977,169.46881)">
        <path
           d="m 0,0 c 1.412,6.463 2.518,12.765 5.256,18.913 -0.776,0.059 -1.552,0.116 -2.327,0.171 -2.286,0.163 -4.572,0.303 -6.86,0.44 C -2.81,12.975 -1.422,6.485 0,0"
           style="fill:#c30508;fill-opacity:1;fill-rule:nonzero;stroke:none"
           id="path1544" />
      </g>
      <g
         id="g1546"
         transform="matrix(0.35277777,0,0,-0.35277777,177.68899,180.07712)">
        <path
           d="M 0,0 C -0.245,-0.186 -0.152,-0.536 0,0"
           style="fill:#df222e;fill-opacity:1;fill-rule:nonzero;stroke:none"
           id="path1548" />
      </g>
      <g
         id="g1550"
         transform="matrix(0.35277777,0,0,-0.35277777,176.94198,171.16461)">
        <path
           d="m 0,0 c -3.011,-8.198 -6.321,-16.292 -9.208,-24.532 2.481,-0.137 4.963,-0.273 7.444,-0.409 1.297,-0.072 2.608,-0.196 3.909,-0.218 0.026,0.108 0.053,0.232 0.08,0.399 0.453,2.841 2.08,5.895 3.026,8.607 1.364,3.91 2.718,7.825 4.04,11.75 1.552,4.606 2.857,9.274 4.224,13.925 C 12.139,14.264 10.601,18.948 8.6,23.473 6.193,15.539 2.849,7.758 0,0"
           style="fill:#df222e;fill-opacity:1;fill-rule:nonzero;stroke:none"
           id="path1552" />
      </g>
      <g
         id="g1554"
         transform="matrix(0.35277777,0,0,-0.35277777,169.32759,177.3554)">
        <path
           d="m 0,0 c -2.803,-0.079 -5.605,-0.158 -8.408,-0.236 -1.647,-0.046 -3.294,-0.093 -4.942,-0.139 0.032,-2.29 0.076,-4.58 0.101,-6.87 1.589,-0.066 3.177,-0.156 4.768,-0.189 2.493,-0.051 4.987,-0.066 7.481,-0.04 2.796,0.028 5.544,-0.862 5.795,2.368 0.104,1.347 -0.022,3.018 -0.817,4.133 C 2.88,0.569 1.789,0.05 0,0"
           style="fill:#df222e;fill-opacity:1;fill-rule:nonzero;stroke:none"
           id="path1556" />
      </g>
      <g
         id="g1558"
         transform="matrix(0.35277777,0,0,-0.35277777,183.97153,163.19028)">
        <path
           d="m 0,0 c -0.565,-1.383 -1.324,-2.771 -1.595,-3.557 -1.065,-3.089 -2.027,-6.209 -2.919,-9.35 2.632,-8.695 4.789,-17.578 8.013,-26.053 0.95,-2.496 1.801,-5.033 2.657,-7.563 0.085,-0.254 0.318,-0.721 0.439,-1.066 0.334,-0.009 0.757,-0.055 0.965,-0.038 3.179,0.255 6.434,0.131 9.641,0.126 C 11.467,-31.667 5.734,-15.834 0,0"
           style="fill:#df222e;fill-opacity:1;fill-rule:nonzero;stroke:none"
           id="path1560" />
      </g>
      <g
         id="g1562"
         transform="matrix(0.35277777,0,0,-0.35277777,182.04562,166.69114)">
        <path
           d="m 0,0 c 0.379,1.245 0.755,2.49 1.16,3.728 0.725,2.213 1.467,4.426 2.292,6.603 0.687,1.812 1.33,2.168 -0.91,2.386 C 0.213,12.944 -2.273,12.611 -4.635,12.258 -2.822,8.277 -1.333,4.169 0,0"
           style="fill:#c30508;fill-opacity:1;fill-rule:nonzero;stroke:none"
           id="path1564" />
      </g>
    </g>
  </g>
</svg>
